<ttFont>
          <CharString index="0">
            rmoveto
            366 -75 callsubr
            -233 97.02000427246094 -243 hhcurveto
            -363 -209 -249 -332 -9 callsubr
            200 -220.97000122070312 367.99000549316406 204 171 61.99000549316406 60.99000549316406 75 hvcurveto
            -57 197 rlineto
            -30 -55 -141 -28 -110 hhcurveto
            -165.99000549316406 -102.00999450683594 67.00999450683594 169.97999572753906 -17 hvcurveto
            669 hlineto
            7 49 5 78.00999450683594 82.99000549316406 vvcurveto
            -343 -24.990005493164062 rmoveto
            -335 39 callgsubr
            -45 callgsubr
            60 105 hhcurveto
            113 40 -83 -165.99000549316406 -9.009994506835938 hvcurveto
            endchar
          </CharString>
          <CharString index="1">
            -141.99000549316406 -59.99000549316406 -43 -97.00999450683594 -1 -75 -14 callsubr
            -72 -59 callgsubr
            -64.99000549316406 62.02000427246094 -34.02000427246094 rrcurveto
            -23 callsubr
            -51 -58 55 callgsubr
            -99 vvcurveto
            -209 182 -133 404.99000549316406 -75 callsubr
            vhcurveto
            324 -2 324.02000427246094 144 302 vvcurveto
            182 -95.00999450683594 163.99000549316406 -356 vhcurveto
            -226 hlineto
            -107.99000549316406 -37 19 55 26.990005493164062 10 31.009994506835938 26.009994506835938 23 hvcurveto
            -4.0099945068359375 36 -33 callsubr
            -52 callgsubr
            40 hhcurveto
            return
          </CharString>
          <CharString index="2">
            -23 -79 callsubr
            -66.99000549316406 -29.990005493164062 -69 hhcurveto
            -102.00999450683594 -48.99000549316406 39 171.99000549316406 hvcurveto
            679.0200042724609 -371 -670 vlineto
            -281.00999450683594 52 -204.97999572753906 333.99000549316406 106 145 -62 callsubr
            61.99000549316406 81 vhcurveto
            -48 vlineto
            -48.97999572753906 22 -8.990005493164062 47 vhcurveto
            268 1155.990005493164 return
          </CharString>
          <CharString index="3">
            148 callgsubr
            370.02000427246094 792.9900054931641 vlineto
            48 49.99000549316406 78.00999450683594 25.990005493164062 54 hhcurveto
            107.99000549316406 3.0200042724609375 37 -52 -166 vvcurveto
            -651.9799957275391 -39 callsubr
            717.9900054931641 vlineto
            328.00999450683594 -115 117 -233 -5.0200042724609375 vhcurveto
            -138 -52 callgsubr
            -149.02000427246094 -9 callgsubr
            -84.99000549316406 -70.99000549316406 -9.009994506835938 122 rcurveline
            -338 hlineto
            return
          </CharString>
          <CharString index="4">
            rmoveto
            -128 -600 -68 -313.02000427246094 -75 313.02000427246094 -164 600 rlineto
            -390.97999572753906 hlineto
            392.99000549316406 -1140 rlineto
            141.99000549316406 hlineto
            -209 -52 -130.99000549316406 -15.020004272460938 61 callsubr
            hhcurveto
            -34 -67.99000549316406 14.009994506835938 7 -22 hvcurveto
            -284 vlineto
            87 callgsubr
            12 127 -12 30 hhcurveto
            59.99000549316406 87 12 20.009994506835938 50 hvcurveto
            145 53.99000549316406 135 -13 callgsubr
            -35 callsubr
            273 359.02000427246094 1166.990005493164 rcurveline
            -388.00999450683594 hlineto
            endchar
          </CharString>
          <CharString index="5">
            133 callgsubr
            hlineto
            -534 1531.990005493164 rlineto
            -433.99000549316406 hlineto
            -530 -1531.990005493164 rlineto
            398.99000549316406 hlineto
            80 284 rlineto
            531 hlineto
            84.00999450683594 -284 rlineto
            -540 549.9900054931641 rmoveto
            134.99000549316406 477 51.02000427246094 197 50 -197 141 -477 rlineto
            -377 hlineto
            endchar
          </CharString>
          <CharString index="6">
            358.02000427246094 197 177.99000549316406 273 239 -156 116 -262 117.99000549316406 hvcurveto
            -99 callsubr
            return
          </CharString>
          <CharString index="7">
            291 190.02000427246094 125.99000549316406 237 177 -104 98 -211 68 hvcurveto
            -179 56 -55 30 60 vvcurveto
            52 1 46 26.009994506835938 128 hhcurveto
            110 123 -51.02000427246094 -35.99000549316406 42 hvcurveto
            33 260 rlineto
            29 -52 -129 41 -186 hhcurveto
            -261 -212.99000549316406 -111 -221 hvcurveto
            -1 -175 85 -116 210 -69 rrcurveto
            155 -51 92.02000427246094 -37 -62 vvcurveto
            -58 -48 -79 callsubr
            -117 1 vhcurveto
            return
          </CharString>
          <CharString index="8">
            -184 84 -60 callsubr
            50 92.02000427246094 vvcurveto
            76.99000549316406 66 51.02000427246094 144 133 143 -49 -48 60.99000549316406 vhcurveto
            59 286 rlineto
            32 -55 -145.99000549316406 46 callgsubr
            -228 hhcurveto
            -322.00999450683594 -221 -140 -277 -245 163 -135 194 -92 hvcurveto
            227 -108 82 -38 -96.99000549316406 vvcurveto
            -38 callgsubr
            -62.02000427246094 -39 -143.99000549316406 vhcurveto
            -160.02000427246094 -1 -168 56 -74 42 return
          </CharString>
          <CharString index="9">
            rmoveto
            -158 -850 -45 -343 -56 343 -207 850 rlineto
            -346.99000549316406 hlineto
            -201 -850 -54.99000549316406 -363 -47 363 -159 850 rlineto
            -381.99000549316406 hlineto
            399.99000549316406 -1531.979995727539 rlineto
            368 hlineto
            193 793.9799957275391 -62 callsubr
            319 48 -318 194.99000549316406 -794.9900054931641 rlineto
            375.00999450683594 hlineto
            401 1531.979995727539 rlineto
            -367 hlineto
            endchar
          </CharString>
          <CharString index="10">
            -46 callsubr
            1022 290.97999572753906 -645 348.02000427246094 450.99000549316406 276.99000549316406 -450.99000549316406 322.00999450683594 584.9900054931641 284 -961.9900054931641 vlineto
            endchar
          </CharString>
          <CharString index="11">
            rmoveto
            366 -2 -231 97.02000427246094 -242 hhcurveto
            -133 -113 -34 -60 -87.99000549316406 hvcurveto
            hintmask 1001101110000000
            72 179 callgsubr
            -107.99000549316406 25.990005493164062 -159 hhcurveto
            -266 -201.99000549316406 177 callsubr
            -23 -44.02000427246094 hvcurveto
            79.02000427246094 -222 rlineto
            30 49.99000549316406 156 51 127 hhcurveto
            139.02000427246094 64.99000549316406 -33 -94 hvcurveto
            -61 vlineto
            -134 -181.99000549316406 -13 -58 -132.02000427246094 hvcurveto
            -128.99000549316406 -54.99000549316406 -82 -110 -137.02000427246094 vvcurveto
            -221 157 -127.97000122070312 76 callsubr
            155 156.02000427246094 50.970001220703125 122.02000427246094 107.99000549316406 vhcurveto
            hintmask 0110011110000000
            -112 95 146 -60.97999572753906 192 hhcurveto
            202 169 61.99000549316406 60.99000549316406 75 hvcurveto
            -57 201 rlineto
            -30 -55 -139 -28 -109 hhcurveto
            -167 -102.00999450683594 64.99000549316406 172 -24 callsubr
            hvcurveto
            663.9900054931641 hlineto
            6 -20 callsubr
            5.0200042724609375 93 callgsubr
            82.99000549316406 vvcurveto
            -339.00999450683594 -24.990005493164062 rmoveto
            -333 hlineto
            -47 callgsubr
            19.009994506835938 95 callsubr
            60 196 callsubr
            hhcurveto
            54 callsubr
            41 -83 -165.99000549316406 -9 hvcurveto
            hintmask 1001011110000000
            -841.0099945068359 -456.00999450683594 rmoveto
            -75 -71 45 104 88 50 26.009994506835938 -28 callsubr
            18 hvcurveto
            41 19.009994506835938 69.02000427246094 14.990005493164062 81.99000549316406 1 76 callgsubr
            -85.00999450683594 16 114 callsubr
            26 -9 callgsubr
            rrcurveto
            -51 -38 -77 -36 -70 hhcurveto
            endchar
          </CharString>
          <CharString index="12">
            -15.990005493164062 return
          </CharString>
          <CharString index="13">
            rmoveto
            -67.99000549316406 -68.02000427246094 3.9900054931640625 11 -37.99000549316406 hvcurveto
            970.0200042724609 vlineto
            6 36 71 6.9900054931640625 51 hhcurveto
            249 118 -130.99000549316406 -367 -345 -138.02000427246094 -153.99000549316406 -213 -1 hvcurveto
            return
          </CharString>
          <CharString index="14">
            55 -515.9900054931641 199.99000549316406 326.99000549316406 262.97999572753906 149.02000427246094 193.99000549316406 267.99998474121094 255.00999450683594 -175.99998474121094 190.99000549316406 return
          </CharString>
          <CharString index="15">
            rmoveto
            235 1 91 116 130 hhcurveto
            67.00999450683594 58 -9.009994506835938 -22 74 callsubr
            -554.9900054931641 vlineto
            -28.020004272460938 -40 -76 -24.990005493164062 -71 hhcurveto
            -117.99000549316406 -74.02000427246094 75 213 1 hvcurveto
            endchar
          </CharString>
          <CharString index="16">
            187 30 -70 -88 -122 -111 -47 -150 -192 -42 110 102.00999450683594 49.99000549316406 16 38.02000427246094 20.009994506835938 26.990005493164062 hvcurveto
            return
          </CharString>
          <CharString index="17">
            57.02000427246094 -38 callgsubr
            -130.99000549316406 27 -165 hhcurveto
            -336 -1 -190 -121 -248 vvcurveto
            -146 82.99000549316406 -20 callgsubr
            145 -59 vhcurveto
            return
          </CharString>
          <CharString index="18">
            73 callsubr
            hstemhm
            36 callsubr
            -62 callsubr
            274 9.010009765625 -39 callsubr
            hintmask 11010000
            -65 callgsubr
            391 -1654.990005493164 rmoveto
            hintmask 11100000
            -51 callsubr
            59 callsubr
            -42 -15.020004272460938 -77 callsubr
            vhcurveto
            hintmask 11010000
            -27 vlineto
            endchar
          </CharString>
          <CharString index="19">
            -43 244 callgsubr
            316.00001525878906 177.99000549316406 191.99998474121094 262 return
          </CharString>
          <CharString index="20">
            101 -18 256.97999572753906 -254.97000122070312 271.99000549316406 hstemhm
            149.99000549316406 -39 callsubr
            322.00999450683594 -39 callsubr
            hintmask 00000000
            hintmask 10110000
            1345.990005493164 -56 callsubr
            rmoveto
            -22 161 callsubr
            -35 -5.0200042724609375 -13 hhcurveto
            -22 -27.009994506835938 14 62 hvcurveto
            825.0200042724609 -370 vlineto
            hintmask 01110000
            -830.0099945068359 vlineto
            -38 113 callgsubr
            -66.99000549316406 -95 callsubr
            -44.99000549316406 hhcurveto
            -121 -50 70.97999572753906 163 hvcurveto
            650.0200042724609 54 callgsubr
            -1510.990005493164 334.99000549316406 vlineto
            -29 414.99000549316406 rlineto
            -44.99000549316406 50 -45 callgsubr
            -36 callgsubr
            91 hhcurveto
            145 71 74.97000122070312 61 33.02000427246094 hvcurveto
            hintmask 10110000
            -95 10 71.99000549316406 -42.99000549316406 101.00999450683594 hhcurveto
            163 104 -35 callsubr
            21.009994506835938 14.009994506835938 hvcurveto
            -31 179 rlineto
            endchar
          </CharString>
          <CharString index="21">
            109 161.02000427246094 vvcurveto
            -47 callsubr
            -64 71 -35 10 vhcurveto
            return
          </CharString>
          <CharString index="22">
            -423.02000427246094 -12 -299.99000549316406 -216.99000549316406 -10 -540.0200042724609 return
          </CharString>
          <CharString index="23">
            217 -16 rlineto
            -266 vlineto
            -20.009994506835938 -49 -64.97999572753906 -12 -106 hhcurveto
            -228 -122 217 295 return
          </CharString>
          <CharString index="24">
            -85 -95 callsubr
            261.97999572753906 236.99000549316406 185.00999450683594 249.00001525878906 239 return
          </CharString>
          <CharString index="25">
            rmoveto
            -405.00999450683594 hlineto
            -228.99000549316406 -492.00999450683594 -54 -168.99000549316406 -64 168.99000549316406 -226 492.00999450683594 rlineto
            -416.99000549316406 hlineto
            return
          </CharString>
          <CharString index="26">
            202 -95 callsubr
            283.97999572753906 306.00001525878906 280 385.989990234375 298 return
          </CharString>
          <CharString index="27">
            -1521.990005493164 return
          </CharString>
          <CharString index="28">
            -26.009994506835938 return
          </CharString>
          <CharString index="29">
            -366.99000549316406 -21 callgsubr
            -144.02000427246094 -194 return
          </CharString>
          <CharString index="30">
            -25.990005493164062 return
          </CharString>
          <CharString index="31">
            -46 callsubr
            384 13 callgsubr
            vlineto
            return
          </CharString>
          <CharString index="32">
            -2.9900054931640625 return
          </CharString>
          <CharString index="33">
            372 163 140 228 34 46 callsubr
            -59 callgsubr
            -7 29 hvcurveto
            184 hlineto
            return
          </CharString>
          <CharString index="34">
            239 -95 callsubr
            -23 callgsubr
            hstem
            139.97999572753906 378.50999450683594 513.4900054931641 376.00999450683594 vstem
            return
          </CharString>
          <CharString index="35">
            371.99000549316406 return
          </CharString>
          <CharString index="36">
            -228 -68 callgsubr
            return
          </CharString>
          <CharString index="37">
            93 391.97999572753906 632.010009765625 391.97999572753906 return
          </CharString>
          <CharString index="38">
            77.99000549316406 return
          </CharString>
          <CharString index="39">
            370.99000549316406 return
          </CharString>
          <CharString index="40">
            118.99000549316406 return
          </CharString>
          <CharString index="41">
            121 100 47 callgsubr
            112 -58 callsubr
            return
          </CharString>
          <CharString index="42">
            -77 -95 callsubr
            292.97999572753906 985.0000152587891 275.97999572753906 hstem
            -67 callsubr
            2 callsubr
            300.00999450683594 380.97999572753906 vstem
            return
          </CharString>
          <CharString index="43">
            rmoveto
            173 -132 89 9 callgsubr
            171 callgsubr
            36 callgsubr
            -192.99000549316406 -203 -41 -40 rlinecurve
            return
          </CharString>
          <CharString index="44">
            -46 callsubr
            382 441 vlineto
            -1 32 -28 callsubr
            -1 80 hhcurveto
            407.02000427246094 219 201.02000427246094 360.97999572753906 396 -220 141 -367 hvcurveto
            -152 -136 -16 -140 hhcurveto
            174 callgsubr
            hlineto
            536.9900054931641 -810 rmoveto
            -62 -51 4 4.0099945068359375 -42 hvcurveto
            541 vlineto
            43 7 57 -48 callgsubr
            47 1 rrcurveto
            179 5 82 -109 -165 vvcurveto
            -212.99000549316406 -110 77 callsubr
            -143 vhcurveto
            endchar
          </CharString>
          <CharString index="45">
            43.99000549316406 return
          </CharString>
          <CharString index="46">
            -52 callsubr
            1 82.99000549316406 55 callgsubr
            123 hhcurveto
            126.02000427246094 77 callgsubr
            -47 callsubr
            121 -1 hvcurveto
            120 -36 callsubr
            90 209 callgsubr
            -107 -120 vhcurveto
            return
          </CharString>
          <CharString index="47">
            -79.00999450683594 return
          </CharString>
          <CharString index="48">
            -538.9900054931641 -1530 rlineto
            262.97999572753906 hlineto
            542 1530 rlineto
            -266 hlineto
            1132 -1128.020004272461 rmoveto
            -151.99000549316406 272.02000427246094 -270 hlineto
            -27 -272.02000427246094 rlineto
            238 callsubr
            hlineto
            43 75.02000427246094 379 610 -240 103 rlineto
            -69 hlineto
            -473 -909 53 -94 rlineto
            571 hlineto
            -1 -264.97999572753906 rlineto
            300.00999450683594 264.97999572753906 151.99000549316406 215 hlineto
            endchar
          </CharString>
          <CharString index="49">
            -64 callgsubr
            -83 -26 callsubr
            return
          </CharString>
          <CharString index="50">
            55 55 81 18 46 0.9799957275390625 rrcurveto
            100 2 47 -42.99000549316406 -174.02000427246094 vvcurveto
            -651.9799957275391 371 715 vlineto
            304.99000549316406 3 callgsubr
            143 -248 -5.0200042724609375 vhcurveto
            endchar
          </CharString>
          <CharString index="51">
            265.99000549316406 return
          </CharString>
          <CharString index="52">
            rmoveto
            -103 177.99000549316406 -56 233 -122 77 callgsubr
            rrcurveto
            146.97999572753906 69.02000427246094 94 61 callgsubr
            233 vvcurveto
            return
          </CharString>
          <CharString index="53">
            -192.99000549316406 178 116 -285 305.99000549316406 rlineto
            return
          </CharString>
          <CharString index="54">
            88.99000549316406 110 110 return
          </CharString>
          <CharString index="55">
            -119.99000549316406 return
          </CharString>
          <CharString index="56">
            -79 callgsubr
            -71 callsubr
            return
          </CharString>
          <CharString index="57">
            hstem
            -81 callgsubr
            return
          </CharString>
          <CharString index="58">
            rmoveto
            -175.97999572753906 -1522.990005493164 351.99000549316406 1 60 808.9799957275391 25.990005493164062 438 100 -449.99000549316406 222 -805.9900054931641 rlineto
            337 hlineto
            204 805.9900054931641 95 449.99000549316406 23 -438 70 -808.9799957275391 rlineto
            366 hlineto
            -194 -74 callgsubr
            rlineto
            -499 hlineto
            -164 -781 -55 -355 -69 355 -185 781 rlineto
            -513 hlineto
            endchar
          </CharString>
          <CharString index="59">
            283.99000549316406 return
          </CharString>
          <CharString index="60">
            106.99000549316406 return
          </CharString>
          <CharString index="61">
            rmoveto
            -80 callsubr
            return
          </CharString>
          <CharString index="62">
            87 -50 callgsubr
            return
          </CharString>
          <CharString index="63">
            hstemhm
            -45 callgsubr
            -72 callsubr
            -334.9800109863281 355 return
          </CharString>
          <CharString index="64">
            -45 callsubr
            -121 return
          </CharString>
          <CharString index="65">
            -552 160 callsubr
            367 -17 callsubr
            vstem
            183.99000549316406 132 callsubr
            rmoveto
            -112 74 170 callgsubr
            -56 callgsubr
            -21 callgsubr
            -12 callsubr
            vhcurveto
            1 -250 -76 callsubr
            endchar
          </CharString>
          <CharString index="66">
            hstem
            -17 callgsubr
            329.00999450683594 141 callsubr
            868.9900054931641 193 callgsubr
            -146 -52 callgsubr
            -134 -71 -76 -64 17 213 rcurveline
            return
          </CharString>
          <CharString index="67">
            -76 callgsubr
            427 -1387 57 callgsubr
            -59 callgsubr
            97.00999450683594 60 callgsubr
            69 hhcurveto
            270 -78 callgsubr
            113 callgsubr
            -63 40 callsubr
            -34 -9 callgsubr
            12 10 -16 vhcurveto
            endchar
          </CharString>
          <CharString index="68">
            369.99000549316406 return
          </CharString>
          <CharString index="69">
            319 0 289.99000549316406 hstem
            -69 callsubr
            1465.990005493164 vstem
            -69 callsubr
            22 rmoveto
            14.009994506835938 -22 rlineto
            1436 hlineto
            16 26.990005493164062 -735 1480.990005493164 rlineto
            -40 hlineto
            -691 -1485.990005493164 rlineto
            993 268 rmoveto
            -558 hlineto
            270.00999450683594 601.9900054931641 287.99000549316406 -601.9900054931641 rlineto
            endchar
          </CharString>
          <CharString index="70">
            -203 -215 -75 -49.99000549316406 -83 return
          </CharString>
          <CharString index="71">
            -77.99000549316406 return
          </CharString>
          <CharString index="72">
            83.99000549316406 return
          </CharString>
          <CharString index="73">
            rrcurveto
            -99 -1 -51 -51 -65 hhcurveto
            -31 -77 callsubr
            3 11 -17 hvcurveto
            195 callsubr
            27 103 -12 61 hhcurveto
            145 118 77 108 callgsubr
            40 callgsubr
            hvcurveto
            1 70 -13 return
          </CharString>
          <CharString index="74">
            37.99000549316406 return
          </CharString>
          <CharString index="75">
            -113.99000549316406 return
          </CharString>
          <CharString index="76">
            187 callsubr
            116 89 -53 callsubr
            -72 73.02000427246094 -116.99000549316406 3 callsubr
            218 callgsubr
            113.99000549316406 26 callsubr
            vhcurveto
            return
          </CharString>
          <CharString index="77">
            1582 rmoveto
            116 89 -53 callsubr
            196 callgsubr
            -1 callgsubr
            -32 callsubr
            204 callsubr
            541 hmoveto
            26 callsubr
            2 callgsubr
            hvcurveto
            return
          </CharString>
          <CharString index="78">
            -112 87 -80 -35 callgsubr
            return
          </CharString>
          <CharString index="79">
            42.99000549316406 return
          </CharString>
          <CharString index="80">
            rmoveto
            -1661.990005493164 371.02000427246094 94 callsubr
            -371.02000427246094 vlineto
            return
          </CharString>
          <CharString index="81">
            -69 callsubr
            -121 return
          </CharString>
          <CharString index="82">
            -31 callgsubr
            243.00999450683594 138.00001525878906 -32 callgsubr
            -243.99000549316406 252 hstemhm
            return
          </CharString>
          <CharString index="83">
            -13.990005493164062 return
          </CharString>
          <CharString index="84">
            -113.00999450683594 return
          </CharString>
          <CharString index="85">
            291 -175 115 60 callsubr
            -167 -223 167 return
          </CharString>
          <CharString index="86">
            162.97999572753906 return
          </CharString>
          <CharString index="87">
            48.99000549316406 return
          </CharString>
          <CharString index="88">
            46 callsubr
            233.97999572753906 358.99000549316406 233 -113.989990234375 230.99000549316406 360.99998474121094 231.99000549316406 hstemhm
            98.97000122070312 283.00999450683594 312 -48 callsubr
            331.02000427246094 108 callsubr
            310.99998474121094 284.99000549316406 return
          </CharString>
          <CharString index="89">
            154 -48 callsubr
            -56 callsubr
            128 callgsubr
            return
          </CharString>
          <CharString index="90">
            hstem
            184.99000549316406 384 return
          </CharString>
          <CharString index="91">
            -88.99000549316406 return
          </CharString>
          <CharString index="92">
            96.99000549316406 return
          </CharString>
          <CharString index="93">
            -0.9900054931640625 return
          </CharString>
          <CharString index="94">
            39 callsubr
            925 rmoveto
            -21 callgsubr
            1 82.99000549316406 -91 110 callgsubr
            120 -36 callsubr
            64 callsubr
            209 callgsubr
            -20 callgsubr
            -120 vhcurveto
            return
          </CharString>
          <CharString index="95">
            -89.99000549316406 -36 callsubr
            -112 return
          </CharString>
          <CharString index="96">
            889 -5 callsubr
            -502.00999450683594 return
          </CharString>
          <CharString index="97">
            370.00999450683594 return
          </CharString>
          <CharString index="98">
            -370.02000427246094 return
          </CharString>
          <CharString index="99">
            282.00999450683594 return
          </CharString>
          <CharString index="100">
            -94 callsubr
            endchar
          </CharString>
          <CharString index="101">
            164 537.9799957275391 257 474 269 -50 callsubr
            379.97999572753906 410.02000427246094 141 callgsubr
            return
          </CharString>
          <CharString index="102">
            286.97999572753906 return
          </CharString>
          <CharString index="103">
            237.99000549316406 return
          </CharString>
          <CharString index="104">
            405.02000427246094 440.00999450683594 rlineto
            -421.00999450683594 hlineto
            -340 -420 12 312 rlineto
            629 -371 -1660.990005493164 371 -47 callgsubr
            vlineto
            -75 callsubr
            134 107.99000549316406 117 260.02000427246094 -439.99000549316406 rlineto
            return
          </CharString>
          <CharString index="105">
            -93.99000549316406 -112 return
          </CharString>
          <CharString index="106">
            -52 callsubr
            -38 callgsubr
            -36 callsubr
            -112 vhcurveto
            return
          </CharString>
          <CharString index="107">
            1635.979995727539 29 callgsubr
            return
          </CharString>
          <CharString index="108">
            93.97999572753906 170 callsubr
            return
          </CharString>
          <CharString index="109">
            365.99000549316406 return
          </CharString>
          <CharString index="110">
            -114.00999450683594 return
          </CharString>
          <CharString index="111">
            86 102 callgsubr
            -55.99000549316406 -20 callsubr
            vhcurveto
            -254.02000427246094 -16 callsubr
            -11 -9 callgsubr
            rlineto
            37 1 callgsubr
            return
          </CharString>
          <CharString index="112">
            -95 callsubr
            276.99000549316406 638.9900054931641 256 return
          </CharString>
          <CharString index="113">
            -81 callgsubr
            344.97999572753906 595.0099945068359 345 return
          </CharString>
          <CharString index="114">
            653.9900054931641 1475.990005493164 rmoveto
            239 34 callgsubr
            -223 hlineto
            160 callgsubr
            -9 callsubr
            175.99000549316406 245 callgsubr
            return
          </CharString>
          <CharString index="115">
            73 callsubr
            hstem
            15 callsubr
            vstem
            return
          </CharString>
          <CharString index="116">
            -151 -152 86 callgsubr
            28 -34 hvcurveto
            return
          </CharString>
          <CharString index="117">
            -239 -1 -219.02000427246094 -169 160 callgsubr
            vvcurveto
            1184.020004272461 473 rmoveto
            -556 -1530 rlineto
            129 callgsubr
            hlineto
            557 1530 rlineto
            -282.99000549316406 hlineto
            -589 -475.00999450683594 rmoveto
            return
          </CharString>
          <CharString index="118">
            63 callsubr
            -1521.990005493164 return
          </CharString>
          <CharString index="119">
            40 callsubr
            -13 -15 callgsubr
            -186 hhcurveto
            -164 return
          </CharString>
          <CharString index="120">
            22 callsubr
            endchar
          </CharString>
          <CharString index="121">
            -95 callsubr
            276.99000549316406 635.9799957275391 243.00999450683594 return
          </CharString>
          <CharString index="122">
            36 callsubr
            327.00001525878906 -39 callsubr
            return
          </CharString>
          <CharString index="123">
            241 145 170 232 -2 hvcurveto
            60 callsubr
            hlineto
            -47.99000549316406 -8 -24 callsubr
            -111 -138.02000427246094 hhcurveto
            -142.99000549316406 -11 111 47.99000549316406 -5 hvcurveto
            -227 hlineto
            return
          </CharString>
          <CharString index="124">
            -35 callgsubr
            18.990005493164062 183 callsubr
            31 hvcurveto
            -127.02000427246094 61 callgsubr
            rlineto
            -46 -34 -61.99000549316406 -59.99000549316406 -71 hhcurveto
            return
          </CharString>
          <CharString index="125">
            -14 callgsubr
            -239 -227 -240 227 return
          </CharString>
          <CharString index="126">
            -515.9900054931641 216.99000549316406 return
          </CharString>
          <CharString index="127">
            664 0 290.97999572753906 27.010009765625 260.99000549316406 62.99998474121094 277.00999450683594 319.00001525878906 -48 callsubr
            hstemhm
            865.9900054931641 377.99000549316406 hintmask 10111000
            return
          </CharString>
          <CharString index="128">
            -1 rmoveto
            -145 -54.99000549316406 -88 -102.00999450683594 -98 -55.99000549316406 -15 callsubr
            148 145 55.99000549316406 88 102.02000427246094 98 46 callgsubr
            -98 -147 vhcurveto
            return
          </CharString>
          <CharString index="129">
            -46 callsubr
            -11 callsubr
            1235 -386.99000549316406 vlineto
            return
          </CharString>
          <CharString index="130">
            -60 callsubr
            -193 -203 -41 -40 return
          </CharString>
          <CharString index="131">
            140 callgsubr
            177.99000549316406 -10 callgsubr
            224 110 callsubr
            return
          </CharString>
          <CharString index="132">
            162 callsubr
            120 116.02000427246094 31 hvcurveto
            -127 61 callgsubr
            rlineto
            -46 -34 -62.02000427246094 -60 -70.99000549316406 hhcurveto
            return
          </CharString>
          <CharString index="133">
            15 callgsubr
            -115 186 callgsubr
            return
          </CharString>
          <CharString index="134">
            hmoveto
            -896.9799957275391 372 -31 callgsubr
            247 243.02000427246094 -247 103 vlineto
            133 return
          </CharString>
          <CharString index="135">
            1857.990005493164 rmoveto
            171 callgsubr
            -26.009994506835938 23 callsubr
            rlinecurve
            173.02000427246094 -132 88.99000549316406 28 177 172 83 124 rlinecurve
            return
          </CharString>
          <CharString index="136">
            173.02000427246094 103 callsubr
            return
          </CharString>
          <CharString index="137">
            -48.99000549316406 -48 vvcurveto
            77 callsubr
            -66.99000549316406 -59 -162.02000427246094 -14 callsubr
            vhcurveto
            175 callsubr
            104 callgsubr
            -66 21.009994506835938 -64 16 return
          </CharString>
          <CharString index="138">
            866.9700012207031 291 return
          </CharString>
          <CharString index="139">
            -196 0 37 callgsubr
            hstem
            51.99000549316406 1007.9799957275391 vstem
            return
          </CharString>
          <CharString index="140">
            0 -5 callsubr
            -50 callsubr
            143 callsubr
            return
          </CharString>
          <CharString index="141">
            -222 -75 callsubr
            128 -146.99000549316406 261 hhcurveto
            return
          </CharString>
          <CharString index="142">
            86 385 96 callgsubr
            385 return
          </CharString>
          <CharString index="143">
            -21 callsubr
            -10 callsubr
            return
          </CharString>
          <CharString index="144">
            rmoveto
            -168 -98 -64 -51 -56 hvcurveto
            -19 callgsubr
            209 rlineto
            200 callgsubr
            -371 return
          </CharString>
          <CharString index="145">
            hstemhm
            56 callsubr
            return
          </CharString>
          <CharString index="146">
            119.99000549316406 return
          </CharString>
          <CharString index="147">
            -106.99000549316406 return
          </CharString>
          <CharString index="148">
            210 callgsubr
            159.99000549316406 109.02000427246094 149 callsubr
            -33 -60 -59 -70 hhcurveto
            return
          </CharString>
          <CharString index="149">
            126 callgsubr
            -155 99 callgsubr
            return
          </CharString>
          <CharString index="150">
            -152.99000549316406 -128 48 callsubr
            -117 -47 hvcurveto
            return
          </CharString>
          <CharString index="151">
            1533.990005493164 rmoveto
            173 132 -40 40 -193 203 return
          </CharString>
          <CharString index="152">
            139 callsubr
            69 callsubr
            return
          </CharString>
          <CharString index="153">
            -3.9900054931640625 return
          </CharString>
          <CharString index="154">
            176.99000549316406 return
          </CharString>
          <CharString index="155">
            -83.99000549316406 return
          </CharString>
          <CharString index="156">
            152 43 76 136.99000549316406 161.02000427246094 vvcurveto
            240.99000549316406 -160.99000549316406 151 -424 vhcurveto
            -155 -104 -36 callgsubr
            -104 hhcurveto
            return
          </CharString>
          <CharString index="157">
            162 callgsubr
            -63 callgsubr
            return
          </CharString>
          <CharString index="158">
            -22 callsubr
            -176 -115 return
          </CharString>
          <CharString index="159">
            -107.99000549316406 vhcurveto
            -42 -148.99000549316406 return
          </CharString>
          <CharString index="160">
            -72 callsubr
            hintmask 00000000
            return
          </CharString>
          <CharString index="161">
            111.99000549316406 return
          </CharString>
          <CharString index="162">
            vstem
            172.99000549316406 1521.990005493164 22 callsubr
            return
          </CharString>
          <CharString index="163">
            -70 callgsubr
            -3 callgsubr
            return
          </CharString>
          <CharString index="164">
            -23 callsubr
            304.99000549316406 122 callsubr
            223 hlineto
            191 callsubr
            -177 -14 callgsubr
            -239 -227 return
          </CharString>
          <CharString index="165">
            -67 callsubr
            -13 callgsubr
            99.99000549316406 -46 callgsubr
            return
          </CharString>
          <CharString index="166">
            -7.9900054931640625 return
          </CharString>
          <CharString index="167">
            -223.99000549316406 return
          </CharString>
          <CharString index="168">
            -103.02000427246094 return
          </CharString>
          <CharString index="169">
            -184 33 callsubr
            return
          </CharString>
          <CharString index="170">
            -81 callgsubr
            74 callgsubr
            return
          </CharString>
          <CharString index="171">
            90.00999450683594 return
          </CharString>
          <CharString index="172">
            132 -40 40 -193 203 95 callgsubr
            20 callgsubr
            75 callsubr
            -122 187 -176 return
          </CharString>
          <CharString index="173">
            121 87 80 111 -14 callgsubr
            -70 62 -121 -1 callsubr
            return
          </CharString>
          <CharString index="174">
            hstem
            6 callsubr
            return
          </CharString>
          <CharString index="175">
            -111 76 -60 callsubr
            85 callsubr
            return
          </CharString>
          <CharString index="176">
            -28 callsubr
            255 220 callgsubr
            return
          </CharString>
          <CharString index="177">
            121 callsubr
            136 rlineto
            return
          </CharString>
          <CharString index="178">
            -16 callgsubr
            -304 370.02000427246094 rlineto
            return
          </CharString>
          <CharString index="179">
            -111 76 -27 callgsubr
            return
          </CharString>
          <CharString index="180">
            74 31 callsubr
            return
          </CharString>
          <CharString index="181">
            -59 callgsubr
            hvcurveto
            return
          </CharString>
          <CharString index="182">
            78.99000549316406 return
          </CharString>
          <CharString index="183">
            212.99000549316406 return
          </CharString>
          <CharString index="184">
            -78.00999450683594 return
          </CharString>
          <CharString index="185">
            164.99000549316406 -4 callgsubr
            rlineto
            38 18 94 -86 callsubr
            return
          </CharString>
          <CharString index="186">
            24.990005493164062 65 hhcurveto
            115 -0.9799957275390625 48 -33.02000427246094 1 -57 1 -62 144 callsubr
            -46 -81 -25 return
          </CharString>
          <CharString index="187">
            124 394.99000549316406 201 callgsubr
            256.99998474121094 251 hstem
            112 callgsubr
            923.9900054931641 vstem
            return
          </CharString>
          <CharString index="188">
            222 callsubr
            112.99000549316406 hvcurveto
            return
          </CharString>
          <CharString index="189">
            -70 callgsubr
            394.99000549316406 return
          </CharString>
          <CharString index="190">
            -70 callgsubr
            86 callsubr
            return
          </CharString>
          <CharString index="191">
            96 callsubr
            -72 callsubr
            return
          </CharString>
          <CharString index="192">
            112.99000549316406 return
          </CharString>
          <CharString index="193">
            388.99000549316406 return
          </CharString>
          <CharString index="194">
            382.99000549316406 return
          </CharString>
          <CharString index="195">
            -100.99000549316406 134 -86.02000427246094 return
          </CharString>
          <CharString index="196">
            43 255 102 callsubr
            return
          </CharString>
          <CharString index="197">
            28 47 callsubr
            return
          </CharString>
          <CharString index="198">
            rlineto
            93 71 87 53 102.99000549316406 hhcurveto
            98 54 -47 -94 -194.99000549316406 -356.99000549316406 -233 -154 return
          </CharString>
          <CharString index="199">
            153 callgsubr
            370.00999450683594 return
          </CharString>
          <CharString index="200">
            89.99000549316406 return
          </CharString>
          <CharString index="201">
            1661.990005493164 return
          </CharString>
          <CharString index="202">
            65.99000549316406 return
          </CharString>
          <CharString index="203">
            221.97999572753906 return
          </CharString>
          <CharString index="204">
            -40.02000427246094 40 -192.99000549316406 203 -27.020004272460938 20 callgsubr
            return
          </CharString>
          <CharString index="205">
            92 callgsubr
            60 callgsubr
            -77 callsubr
            vhcurveto
            return
          </CharString>
          <CharString index="206">
            212 48 callsubr
            -43 callgsubr
            -45 rlinecurve
            return
          </CharString>
          <CharString index="207">
            hhcurveto
            -167.02000427246094 -32 callsubr
            -116 -115 return
          </CharString>
          <CharString index="208">
            hstemhm
            144.99000549316406 -68 callsubr
            return
          </CharString>
          <CharString index="209">
            115 callgsubr
            162 callgsubr
            return
          </CharString>
          <CharString index="210">
            -158 93 callsubr
            return
          </CharString>
          <CharString index="211">
            201.99000549316406 return
          </CharString>
          <CharString index="212">
            294.00999450683594 return
          </CharString>
          <CharString index="213">
            223.99000549316406 return
          </CharString>
          <CharString index="214">
            52.97999572753906 return
          </CharString>
          <CharString index="215">
            282.99000549316406 return
          </CharString>
          <CharString index="216">
            vstem
            197.97999572753906 1702.990005493164 rmoveto
            42 -753 rlineto
            251 hlineto
            41 753 rlineto
            -334 hlineto
            return
          </CharString>
          <CharString index="217">
            -58 callgsubr
            rlineto
            return
          </CharString>
          <CharString index="218">
            173 -131.99000549316406 89 90 callsubr
            return
          </CharString>
          <CharString index="219">
            -96.00999450683594 return
          </CharString>
          <CharString index="220">
            288.00999450683594 return
          </CharString>
          <CharString index="221">
            -76.99000549316406 return
          </CharString>
          <CharString index="222">
            -136.99000549316406 return
          </CharString>
          <CharString index="223">
            120.02000427246094 return
          </CharString>
          <CharString index="224">
            -370.00999450683594 return
          </CharString>
          <CharString index="225">
            -145 -56 -88 -102.00999450683594 -98 -56 98 147 145 56 88 102.00999450683594 vhcurveto
            return
          </CharString>
          <CharString index="226">
            -136 rlineto
            40 callsubr
            vlineto
            46 -8 58 -98 -16 callsubr
            vvcurveto
            -132.02000427246094 return
          </CharString>
          <CharString index="227">
            1687 rmoveto
            -232.02000427246094 -75 callsubr
            134.97999572753906 159 callsubr
            return
          </CharString>
          <CharString index="228">
            116 74 callsubr
            -127 return
          </CharString>
          <CharString index="229">
            54 callgsubr
            rlineto
            return
          </CharString>
          <CharString index="230">
            163 hstem
            25.990005493164062 205 317.989990234375 204 vstem
            25.990005493164062 return
          </CharString>
          <CharString index="231">
            -86.97999572753906 -28 callgsubr
            208 callgsubr
            return
          </CharString>
          <CharString index="232">
            968.9900054931641 235.99000549316406 -968.9900054931641 -235.99000549316406 hlineto
            endchar
          </CharString>
          <CharString index="233">
            -122 187 139 callgsubr
            return
          </CharString>
          <CharString index="234">
            266.00999450683594 -132.00999450683594 263 hstemhm
            return
          </CharString>
          <CharString index="235">
            -294.00999450683594 407 return
          </CharString>
          <CharString index="236">
            -120.02000427246094 return
          </CharString>
          <CharString index="237">
            -159.99000549316406 return
          </CharString>
          <CharString index="238">
            367.97999572753906 return
          </CharString>
          <CharString index="239">
            1771.990005493164 return
          </CharString>
          <CharString index="240">
            86.02000427246094 return
          </CharString>
          <CharString index="241">
            1739 rmoveto
            165 callgsubr
            return
          </CharString>
          <CharString index="242">
            -98 hhcurveto
            hintmask 01011000
            -145 -41 156 -211 hhcurveto
            -182.99000549316406 -140 -161 return
          </CharString>
          <CharString index="243">
            hstemhm
            147 callgsubr
            return
          </CharString>
          <CharString index="244">
            86 438.97999572753906 272.99000549316406 560.0200042724609 -56 callsubr
            return
          </CharString>
          <CharString index="245">
            83 55 callgsubr
            122 hhcurveto
            127 95 -47 callsubr
            121 120 return
          </CharString>
          <CharString index="246">
            246 callsubr
            64 callsubr
            return
          </CharString>
          <CharString index="247">
            hhcurveto
            -139 -18 92 47 return
          </CharString>
          <CharString index="248">
            -68 callsubr
            vstem
            return
          </CharString>
          <CharString index="249">
            -109.02000427246094 return
          </CharString>
          <CharString index="250">
            386.99000549316406 return
          </CharString>
          <CharString index="251">
            -56.02000427246094 return
          </CharString>
          <CharString index="252">
            171 callgsubr
            -77 callsubr
            -79 -193 -203.02000427246094 -41 -40 rlinecurve
            return
          </CharString>
          <CharString index="253">
            -492 -214.99000549316406 202.50999450683594 1555.4600067138672 206 hstem
            return
          </CharString>
          <CharString index="254">
            103 -12 61 hhcurveto
            145 117.99000549316406 77 108 callgsubr
            2 hvcurveto
            1 return
          </CharString>
          <CharString index="255">
            67 callsubr
            vstem
            return
          </CharString>
          <CharString index="256">
            39 callsubr
            70 callsubr
            -46 return
          </CharString>
          <CharString index="257">
            245 callsubr
            177 114 -304 -10 callsubr
            rlineto
            -223 hlineto
            return
          </CharString>
          <CharString index="258">
            396 -306 -396 -306.00999450683594 return
          </CharString>
          <CharString index="259">
            hstemhm
            -47 callgsubr
            -39 callsubr
            return
          </CharString>
          <CharString index="260">
            -50 callsubr
            87 callsubr
            return
          </CharString>
          <CharString index="261">
            434.99000549316406 384 return
          </CharString>
          <CharString index="262">
            505 988 rlineto
            endchar
          </CharString>
          <CharString index="263">
            124.99000549316406 return
          </CharString>
          <CharString index="264">
            -72.99000549316406 return
          </CharString>
          <CharString index="265">
            -95.99000549316406 return
          </CharString>
          <CharString index="266">
            -169.99000549316406 return
          </CharString>
          <CharString index="267">
            1594.979995727539 return
          </CharString>
          <CharString index="268">
            -36.99000549316406 return
          </CharString>
          <CharString index="269">
            -35 callgsubr
            207 callsubr
            return
          </CharString>
          <CharString index="270">
            -31 callgsubr
            207 callgsubr
            return
          </CharString>
          <CharString index="271">
            477 -95 callsubr
            1840.979995727539 hstem
            -2 1787 vstem
            return
          </CharString>
          <CharString index="272">
            1280.979995727539 rmoveto
            115 89 94 211 callgsubr
            return
          </CharString>
          <CharString index="273">
            75 5 callsubr
            return
          </CharString>
          <CharString index="274">
            92 85 callgsubr
            return
          </CharString>
          <CharString index="275">
            hstem
            -13 2023.990005493164 vstem
            return
          </CharString>
          <CharString index="276">
            -65 -67 callsubr
            return
          </CharString>
          <CharString index="277">
            111 112 -70 77 return
          </CharString>
          <CharString index="278">
            -93 -111 -111 76 -60 callsubr
            -64 callgsubr
            hvcurveto
            return
          </CharString>
          <CharString index="279">
            -116 -115 132 callgsubr
            hvcurveto
            return
          </CharString>
          <CharString index="280">
            1221.979995727539 rmoveto
            169 158 return
          </CharString>
          <CharString index="281">
            20.990005493164062 return
          </CharString>
          <CharString index="282">
            -140.99000549316406 return
          </CharString>
          <CharString index="283">
            115.02000427246094 return
          </CharString>
          <CharString index="284">
            -101.99000549316406 return
          </CharString>
          <CharString index="285">
            -6.9900054931640625 return
          </CharString>
          <CharString index="286">
            -31.990005493164062 return
          </CharString>
          <CharString index="287">
            101.99000549316406 return
          </CharString>
          <CharString index="288">
            152.99000549316406 return
          </CharString>
          <CharString index="289">
            -255 147 -227 150 78 callgsubr
            rrcurveto
            hintmask 11100100
            return
          </CharString>
          <CharString index="290">
            -134 183 89 callgsubr
            return
          </CharString>
          <CharString index="291">
            rmoveto
            -618.9900054931641 -238 618.9900054931641 238 hlineto
            return
          </CharString>
          <CharString index="292">
            -17 0 1987.990005493164 hstem
            448 86 callsubr
            vstem
            return
          </CharString>
          <CharString index="293">
            vstem
            1044.990005493164 1838 rmoveto
            -486.00999450683594 return
          </CharString>
          <CharString index="294">
            1765.990005493164 rmoveto
            2 callgsubr
            return
          </CharString>
          <CharString index="295">
            -392.00999450683594 486.00999450683594 485.99000549316406 return
          </CharString>
          <CharString index="296">
            334 -138 105.99000549316406 -229 -1 vhcurveto
            endchar
          </CharString>
          <CharString index="297">
            94 211 callsubr
            return
          </CharString>
          <CharString index="298">
            304 368.99000549316406 return
          </CharString>
          <CharString index="299">
            182 callgsubr
            rlineto
            return
          </CharString>
          <CharString index="300">
            hvcurveto
            -220 hlineto
            -47 -7 return
          </CharString>
          <CharString index="301">
            167 -176 -115 return
          </CharString>
          <CharString index="302">
            -23 -181 rlineto
            -16 return
          </CharString>
          <CharString index="303">
            104.02000427246094 return
          </CharString>
          <CharString index="304">
            32.99000549316406 return
          </CharString>
          <CharString index="305">
            -53.99000549316406 return
          </CharString>
          <CharString index="306">
            663.9799957275391 return
          </CharString>
          <CharString index="307">
            -247.99000549316406 return
          </CharString>
          <CharString index="308">
            -102.99000549316406 return
          </CharString>
          <CharString index="309">
            222.99000549316406 return
          </CharString>
          <CharString index="310">
            569.9999847412109 return
          </CharString>
          <CharString index="311">
            186 callgsubr
            2 callgsubr
            hvcurveto
            return
          </CharString>
          <CharString index="312">
            vhcurveto
            253.99000549316406 vlineto
            6 -79 callsubr
            return
          </CharString>
          <CharString index="313">
            1277 186.97999572753906 214.99000549316406 return
          </CharString>
          <CharString index="314">
            19 -134 182.99000549316406 hhcurveto
            162 111 return
          </CharString>
          <CharString index="315">
            -88 -110 -109 77 -75 114.02000427246094 hvcurveto
            return
          </CharString>
          <CharString index="316">
            191 callgsubr
            hhcurveto
            return
          </CharString>
          <CharString index="317">
            103 callsubr
            43 return
          </CharString>
          <CharString index="318">
            170 callsubr
            -116 return
          </CharString>
          <CharString index="319">
            -31.009994506835938 return
          </CharString>
          <CharString index="320">
            -19.990005493164062 return
          </CharString>
          <CharString index="321">
            96.00999450683594 return
          </CharString>
          <CharString index="322">
            -108.99000549316406 return
          </CharString>
          <CharString index="323">
            204.97999572753906 return
          </CharString>
          <CharString index="324">
            1849 rmoveto
            return
          </CharString>
          <CharString index="325">
            -142.99000549316406 -198 -16 -76 hhcurveto
            -140 return
          </CharString>
          <CharString index="326">
            217 callsubr
            -8 callsubr
            -291 rlineto
            return
          </CharString>
          <CharString index="327">
            -291 rlineto
            234 hlineto
            return
          </CharString>
          <CharString index="328">
            1665.990005493164 rmoveto
            return
          </CharString>
          <CharString index="329">
            -93 -111 72 callsubr
            return
          </CharString>
          <CharString index="330">
            122 callgsubr
            114 callgsubr
            return
          </CharString>
          <CharString index="331">
            rmoveto
            -13 callgsubr
            99.99000549316406 return
          </CharString>
          <CharString index="332">
            98.97999572753906 1056.990005493164 rmoveto
            return
          </CharString>
          <CharString index="333">
            -1591.009994506836 rmoveto
            -52 callsubr
            return
          </CharString>
          <CharString index="334">
            hstemhm
            -21 callsubr
            371.02000427246094 return
          </CharString>
          <CharString index="335">
            158 callsubr
            1 vhcurveto
            return
          </CharString>
          <CharString index="336">
            541 hmoveto
            -109 77 -75 return
          </CharString>
          <CharString index="337">
            -104 5 -146 rrcurveto
            -131 return
          </CharString>
          <CharString index="338">
            50.02000427246094 return
          </CharString>
          <CharString index="339">
            186 callgsubr
            vhcurveto
            return
          </CharString>
          <CharString index="340">
            387.00999450683594 return
          </CharString>
          <CharString index="341">
            40.97999572753906 return
          </CharString>
          <CharString index="342">
            -114.02000427246094 return
          </CharString>
          <CharString index="343">
            hvcurveto
            170 vlineto
            -12 return
          </CharString>
          <CharString index="344">
            288.99000549316406 return
          </CharString>
          <CharString index="345">
            -266.02000427246094 return
          </CharString>
          <CharString index="346">
            304.97999572753906 return
          </CharString>
          <CharString index="347">
            196.02000427246094 return
          </CharString>
          <CharString index="348">
            -94.99000549316406 rlineto
            -50 vlineto
            hintmask 10100000
            return
          </CharString>
          <CharString index="349">
            217 226 vvcurveto
            116.97999572753906 return
          </CharString>
          <CharString index="350">
            -27 callgsubr
            85 callsubr
            return
          </CharString>
          <CharString index="351">
            176 callsubr
            88.99000549316406 return
          </CharString>
          <CharString index="352">
            239 -227 return
          </CharString>
          <CharString index="353">
            173 -158 return
          </CharString>
        <CharString name=".notdef">
          572 0 218.99000549316406 973.989990234375 223 hstem
          230.99000549316406 234 callgsubr
          959.9999847412109 227 vstem
          230.99000549316406 1415.990005493164 rmoveto
          -1415.990005493164 1415.990005493164 1415.990005493164 -1415.990005493164 vlineto
          705 -828.9900054931641 rmoveto
          -347.02000427246094 -368 -128 144 358.02000427246094 342 -359.02000427246094 363.00999450683594 123 156 callsubr
          357.00999450683594 -367.99000549316406 351.99000549316406 366 128 -124 -362.99000549316406 -357.99000549316406 362.99000549316406 -368 -122 -122 -361.99000549316406 368 rlineto
          endchar
        </CharString>
        <CharString name="A">
          -18 callsubr
          1075 hmoveto
          -102 callsubr
        </CharString>
        <CharString name="AE">
          20 callsubr
          1244 290.97999572753906 -51 callgsubr
        </CharString>
        <CharString name="AEacute">
          20 callsubr
          1432.990005493164 1857.990005493164 rmoveto
          -62 callgsubr
          173 -132 89 9 callgsubr
          -188.99000549316406 -1567.009994506836 -51 callgsubr
        </CharString>
        <CharString name="Aacute">
          -18 callsubr
          1107.990005493164 1857.990005493164 rmoveto
          -62 callgsubr
          173 -132 89 9 callgsubr
          -32.99000549316406 -1857.990005493164 rmoveto
          -102 callsubr
        </CharString>
        <CharString name="Abreve">
          154 -48 callsubr
          -56 callsubr
          1044.009994506836 195 callgsubr
          128 callgsubr
          730.9900054931641 1594 rmoveto
          48 callgsubr
          137.02000427246094 44 callgsubr
          115 callsubr
          152 callgsubr
          34 callsubr
          344 -1594 rmoveto
          -102 callsubr
        </CharString>
        <CharString name="Acircumflex">
          -18 callsubr
          730.9900054931641 1733.979995727539 rmoveto
          106 callsubr
          -58 callgsubr
          111 callgsubr
          rlineto
          344 -1733.979995727539 rmoveto
          -102 callsubr
        </CharString>
        <CharString name="Adieresis">
          154 -48 callsubr
          -56 callsubr
          1032.009994506836 -3 callgsubr
          hstemhm
          264.99000549316406 192 callgsubr
          hintmask 00000000
          hintmask 11110000
          455.99000549316406 -30 callsubr
          78.00999450683594 -1582 rmoveto
          -102 callsubr
        </CharString>
        <CharString name="Agrave">
          -18 callsubr
          705.9900054931641 22 callgsubr
          79.00999450683594 -122 186.99000549316406 139 callgsubr
          369.00999450683594 -1533.990005493164 rmoveto
          -102 callsubr
        </CharString>
        <CharString name="Amacron">
          154 -48 callsubr
          -56 callsubr
          1124.009994506836 234 hstemhm
          422.99000549316406 618.9799957275391 231 callgsubr
          1041.979995727539 1908 rmoveto
          -618.9900054931641 -234 618.9900054931641 234 hlineto
          33.02000427246094 -1908 rmoveto
          -102 callsubr
        </CharString>
        <CharString name="Aogonek">
          154 19 callsubr
          582.9900054931641 -56 callsubr
          hstemhm
          935.9900054931641 239 callsubr
          231 callgsubr
          1240.990005493164 -211 rmoveto
          -6 202 callgsubr
          81 69 97.02000427246094 53 rrcurveto
          95 callsubr
          hlineto
          -534 1531.990005493164 rlineto
          -433.99000549316406 hlineto
          -530 -1531.990005493164 rlineto
          398.99000549316406 hlineto
          80 284 rlineto
          531 hlineto
          84.00999450683594 -284 rlineto
          -15 callsubr
          hlineto
          -117 -58 -124.00999450683594 -104 5.0200042724609375 -146 rrcurveto
          -131 4 -15 callgsubr
          114 callsubr
          146 hhcurveto
          -64 callgsubr
          138 callgsubr
          -37 161 callsubr
          -8 -35 hhcurveto
          -71 -50 23 65 -4.0099945068359375 hvcurveto
          -705.9900054931641 761 rmoveto
          134.99000549316406 477 51.02000427246094 197 50 -197 141 -477 rlineto
          -377 hlineto
          endchar
        </CharString>
        <CharString name="Aring">
          154 -48 callsubr
          -56 callsubr
          1264.009994506836 163 hstem
          2 callsubr
          216 callsubr
          318.02000427246094 204 vstem
          1075 hmoveto
          133 callgsubr
          hlineto
          -507 1454 72 47 48 75 1 54 callsubr
          rlinecurve
          240 callsubr
          104 callgsubr
          -137 93 -222 hhcurveto
          -176.99000549316406 -188 -66.00999450683594 -216 -4 hvcurveto
          -2 -109 42 -82 -69 callsubr
          -51 -502.99000549316406 -1452.990005493164 rcurveline
          398.99000549316406 hlineto
          80 284 rlineto
          531 hlineto
          84.00999450683594 -284 rlineto
          -346.00999450683594 1814 rmoveto
          92 -1 68.02000427246094 -39 -89 vvcurveto
          -106 -64 -17 112 callsubr
          1 vhcurveto
          -92 -66 -62 callsubr
          84.00999450683594 104 75 20 83 -1 hvcurveto
          -193.99000549316406 -1264 rmoveto
          134.99000549316406 477 51.02000427246094 197 50 -197 141 -477 rlineto
          -377 hlineto
          endchar
        </CharString>
        <CharString name="Atilde">
          154 -48 callsubr
          -56 callsubr
          1014.0099945068359 12 callgsubr
          142 callgsubr
          hintmask 10110000
          573.9900054931641 1698 rmoveto
          hintmask 11010000
          116 18 -134 179 hhcurveto
          160 109 149 callsubr
          -32.99000549316406 -60 -59 -70 hhcurveto
          hintmask 10110000
          -106.99000549316406 80 callgsubr
          33 61 56.02000427246094 64 hhcurveto
          501 -1698 rmoveto
          -102 callsubr
        </CharString>
        <CharString name="B">
          149 callgsubr
          122 callgsubr
          377.99000549316406 391.99998474121094 363 -309 390 hintmask 11110100
          -81 callgsubr
          1523 21 callgsubr
          hintmask 11111000
          49 callsubr
          hintmask 11110100
          -185 1 rlineto
          hintmask 11111000
          4 callgsubr
          hintmask 11110100
          26 callgsubr
        </CharString>
        <CharString name="C">
          -39 callgsubr
          863.9900054931641 1537.990005493164 -97 callgsubr
        </CharString>
        <CharString name="CR">
          -1306 endchar
        </CharString>
        <CharString name="Cacute">
          -39 callgsubr
          910.9900054931641 278 rmoveto
          -284 -147 104 callsubr
          301 294.02000427246094 182 160.99000549316406 233 182.99000549316406 91.00999450683594 -59 -29 -28 callsubr
          hvcurveto
          50 329.00999450683594 -38 callgsubr
          18.990005493164062 -92 215 callgsubr
          -201 40 callgsubr
          rlinecurve
          92.02000427246094 37 65 callgsubr
          164 80 -67 callsubr
          171 callgsubr
          rcurveline
          -77 callsubr
          23 callsubr
          168 -128 rcurveline
          -435 -1 -343 -263.97999572753906 -515.0099945068359 vvcurveto
          -471 280 -302.97999572753906 502.99000549316406 178.02000427246094 117 46.97999572753906 33.02000427246094 75 callsubr
          vhcurveto
          -1 192 callsubr
          -42 -51 -149 -55.99000549316406 -130 hhcurveto
          endchar
        </CharString>
        <CharString name="Ccaron">
          -39 callgsubr
          442 217 callsubr
          225 callgsubr
          129 callgsubr
          -22 callsubr
          -175.99000549316406 -115 rlineto
          421.99000549316406 -311.00999450683594 -97 callgsubr
        </CharString>
        <CharString name="Ccedilla">
          0 35 callgsubr
          255 292 957.9799957275391 301.99000549316406 hstem
          82 callsubr
          247.00999450683594 241.99000549316406 vstem
          1240.990005493164 232 callgsubr
          rmoveto
          -42 -51 -149 -55.99000549316406 -130 hhcurveto
          -284 -147 104 callsubr
          301 294.02000427246094 182 160.99000549316406 233 182.99000549316406 91.00999450683594 -59 -29 -28 callsubr
          hvcurveto
          50 329.00999450683594 rlineto
          18.990005493164062 -92.02000427246094 -94.99000549316406 42 -211 hhcurveto
          -435 -344 -264.99000549316406 -515.0099945068359 -419 221 -286 403 -57.97999572753906 hvcurveto
          11 -79 callsubr
          -19 callgsubr
          -35 -14 callsubr
          -53 rrcurveto
          -99 -1 -51.02000427246094 -51 -64.97999572753906 hhcurveto
          -31 -79 callsubr
          3 11 -17 hvcurveto
          195 callsubr
          239 callgsubr
          147 callsubr
          67.00999450683594 -12 82 -24 52.99000549316406 141 157 callgsubr
          98 38.970001220703125 69 29.029998779296875 -1 182 callgsubr
          rcurveline
          endchar
        </CharString>
        <CharString name="Ccircumflex">
          -39 callgsubr
          438.99000549316406 140 callgsubr
          111 callgsubr
          91 callgsubr
          rlineto
          425 -117 -97 callgsubr
        </CharString>
        <CharString name="Cdotaccent">
          0 -95 callsubr
          293.99000549316406 957.9799957275391 301.99000549316406 57.00999450683594 367 hstemhm
          82 callsubr
          166.99998474121094 107 callgsubr
          hintmask 00000000
          hintmask 11111000
          646.9799957275391 132 callsubr
          rmoveto
          69 callgsubr
          -56 callgsubr
          -120 -38 callgsubr
          -36 callsubr
          -112 vhcurveto
          hintmask 11010000
          217 -234 -97 callgsubr
        </CharString>
        <CharString name="D">
          255 0 callgsubr
          997.9900054931641 51 callgsubr
          63 callsubr
          -95 callgsubr
          -140 hlineto
          557 -1257 -7 callsubr
        </CharString>
        <CharString name="Dcaron">
          255 0 callgsubr
          997.9900054931641 51 callgsubr
          378.97999572753906 187 callgsubr
          129 callgsubr
          5 callgsubr
          -205.99000549316406 -327 rmoveto
          -95 callgsubr
          -140 hlineto
          557 -1257 -7 callsubr
        </CharString>
        <CharString name="Dcroat">
          -85 callgsubr
        </CharString>
        <CharString name="E">
          -36 0 -82 callgsubr
          -50 callsubr
          114 callgsubr
          vstem
          172.99000549316406 1521.990005493164 -97 callsubr
        </CharString>
        <CharString name="Eacute">
          -36 0 -82 callgsubr
          -50 callsubr
          114 callgsubr
          vstem
          554.9900054931641 221 callsubr
          173 -132 89 28 177 172 82.99000549316406 124 rlinecurve
          -62 callgsubr
          -382 -144 -97 callsubr
        </CharString>
        <CharString name="Ebreve">
          -36 0 -82 callgsubr
          156 callgsubr
          195 callgsubr
          -50 callsubr
          114 callgsubr
          vstem
          314.97999572753906 10 callgsubr
          -141.99000549316406 -441 -97 callsubr
        </CharString>
        <CharString name="Ecaron">
          -36 0 -82 callgsubr
          -50 callsubr
          114 callgsubr
          vstem
          302.97999572753906 187 callgsubr
          181 callgsubr
          5 callgsubr
          -129.99000549316406 -327 -97 callsubr
        </CharString>
        <CharString name="Ecircumflex">
          -36 0 -82 callgsubr
          -50 callsubr
          114 callgsubr
          vstem
          -23 callgsubr
          24 callsubr
          -127 -133 -97 callsubr
        </CharString>
        <CharString name="Edieresis">
          -36 0 -82 callgsubr
          60.00999450683594 -3 callgsubr
          223 callsubr
          -314.99000549316406 396 144.989990234375 396 hintmask 00000000
          hintmask 11110110
          234.99000549316406 -31 callsubr
          hintmask 11101000
          -603 -244 -97 callsubr
        </CharString>
        <CharString name="Edotaccent">
          -36 0 -82 callgsubr
          72.99998474121094 367 223 callsubr
          -43.00001525878906 107 callgsubr
          hintmask 00000000
          hintmask 11110100
          506.97999572753906 132 callsubr
          rmoveto
          69 callgsubr
          -56 callgsubr
          -1 callsubr
          hintmask 11101000
          -333.99000549316406 -250 -97 callsubr
        </CharString>
        <CharString name="Egrave">
          -36 0 -82 callgsubr
          -50 callsubr
          114 callgsubr
          vstem
          675.9799957275391 1533.990005493164 rmoveto
          173.02000427246094 132 97 callsubr
          79.02000427246094 -122 187 -176 82.99000549316406 -77 callsubr
          rlinecurve
          -502.99000549316406 -12 -97 callsubr
        </CharString>
        <CharString name="Emacron">
          -36 0 -82 callgsubr
          152.00999450683594 234 223 callsubr
          -156.99000549316406 619 hintmask 00000000
          hintmask 11110100
          392.99000549316406 127 callgsubr
          hintmask 11111000
          -220 -386 -97 callsubr
        </CharString>
        <CharString name="Eng">
          325 -468.99000549316406 1990.979995727539 hstem
          172.47999572753906 355.50999450683594 572.9900054931641 356 vstem
          1100.979995727539 74 callgsubr
          -670 vlineto
          42 -379 177 callsubr
          214 -505.02000427246094 835.0099945068359 rlineto
          -363.99000549316406 hlineto
          1 -80 callsubr
          rlineto
          355 658.9799957275391 hlineto
          -52 394.02000427246094 111 -238.02000427246094 489 -803.9900054931641 rlineto
          -152 -176 -135.99000549316406 -171 -49 vhcurveto
          216 callgsubr
          -142.99000549316406 rlineto
          306.02000427246094 238 168 199.99000549316406 -45 callgsubr
          hvcurveto
          43 131.99000549316406 0 99 187 vvcurveto
          1205 -356 vlineto
          endchar
        </CharString>
        <CharString name="Eogonek">
          -49 19 callsubr
          299 -82 callgsubr
          -50 callsubr
          114 callgsubr
          108.99998474121094 305 vstem
          1088.979995727539 -299 rmoveto
          -70.99000549316406 -50 23 65 -4 hvcurveto
          -6 202 callgsubr
          81 69 -15 callsubr
          53 rrcurveto
          59 290.97999572753906 -645 348.02000427246094 450.99000549316406 276.99000549316406 -450.99000549316406 322.00999450683594 584.9900054931641 284 -961.9900054931641 -80 callsubr
          722 hlineto
          -117 -58 -124 230 callsubr
          76 callgsubr
          -15 callgsubr
          114 callsubr
          146 hhcurveto
          113 -69 callsubr
          24 -28 callsubr
          67.00999450683594 236 callsubr
          -37 -38.02000427246094 -8 -34 hhcurveto
          endchar
        </CharString>
        <CharString name="Eth">
          -85 callgsubr
        </CharString>
        <CharString name="Euro">
          172 -28 238 callgsubr
          226 205 166.010009765625 216 callsubr
          209.00999450683594 281 hstem
          266.99000549316406 374.97999572753906 vstem
          1320.979995727539 321.97999572753906 rmoveto
          -42 -62 203 callgsubr
          -34 -124 hhcurveto
          -180 -101 217 callgsubr
          140.99000549316406 -50 hvcurveto
          438.99000549316406 205 -478 hlineto
          -75 callsubr
          38 -1 40 41 vvcurveto
          16 0 16 1 15.009994506835938 vhcurveto
          526 204.99000549316406 -485 hlineto
          60.99000549316406 147 120.00999450683594 63 146 -1 157 -14 callsubr
          63 -25 69 -42 53 113 callsubr
          rcurveline
          -86 18.990005493164062 -80.02000427246094 50 -227.97999572753906 -8 -327 -12 -233 -164 -38 callgsubr
          -314 rrcurveto
          -194.99000549316406 -204.99000549316406 158 hlineto
          -3 113 callgsubr
          -52 callgsubr
          -41 -42.99000549316406 vvcurveto
          60 callgsubr
          0 -24 callsubr
          104 callgsubr
          94 callgsubr
          vhcurveto
          -184 -205 208 hlineto
          -316.99000549316406 71 221 -182.99000549316406 374 hhcurveto
          280 59 59.97999572753906 11 -35 callsubr
          hvcurveto
          -60 279 rlineto
          endchar
        </CharString>
        <CharString name="F">
          135 callgsubr
          -50 callsubr
          379.97999572753906 33 callgsubr
          379.99000549316406 591.9900054931641 433 283 -433 363.00999450683594 570 284 -949.9900054931641 vlineto
          endchar
        </CharString>
        <CharString name="G">
          -81 callsubr
          hstem
          147 callgsubr
          vstem
          826.9799957275391 854 64 callgsubr
          -101 callgsubr
          -565 vlineto
          endchar
        </CharString>
        <CharString name="Gbreve">
          -81 callsubr
          57 230 136 callsubr
          hintmask 00000000
          hintmask 11111100
          841.9900054931641 160 callsubr
          rmoveto
          248 137 147 222 -2 193 callsubr
          -19.009994506835938 -92 115 callsubr
          152 callgsubr
          -222 -75 callsubr
          128 -147 261 hhcurveto
          60 callgsubr
          -740.9900054931641 64 callgsubr
          -84 callsubr
          hvcurveto
          hintmask 11101100
          -66 callgsubr
          vhcurveto
          10 318 rlineto
          22.020004272460938 -115 -99 -33 callsubr
          -223 hhcurveto
          -440 -348 -222 -563 -485 291 -283.9700012207031 454 345 98 -15 callsubr
          5 -67 callsubr
          hvcurveto
          768 vlineto
          hintmask 11111100
          -565 hlineto
          endchar
        </CharString>
        <CharString name="Gcaron">
          -81 callsubr
          hstem
          147 callgsubr
          vstem
          960 1559 rmoveto
          181 callgsubr
          51 callsubr
          -8 callsubr
          220 callsubr
          -133.02000427246094 -705 64 callgsubr
          -101 callgsubr
          -565 vlineto
          endchar
        </CharString>
        <CharString name="Gcircumflex">
          -81 callsubr
          hstem
          147 callgsubr
          vstem
          841.9900054931641 1734.979995727539 rmoveto
          106 callsubr
          -193 178.02000427246094 71 callgsubr
          -284 -308 177.99000549316406 3 callsubr
          223 193 rlineto
          60 callgsubr
          -880.9900054931641 64 callgsubr
          -101 callgsubr
          -565 vlineto
          endchar
        </CharString>
        <CharString name="Gcommaaccent">
          -81 callsubr
          151 callgsubr
          235.00999450683594 274 60.989990234375 131 callgsubr
          hintmask 11110100
          826.9799957275391 854 64 callgsubr
          -101 callgsubr
          -565 vlineto
          hintmask 11111100
          57.02000427246094 -938 rmoveto
          -71 callsubr
          87 callgsubr
          88 callgsubr
          -27 vlineto
          164.99000549316406 -4 callgsubr
          rlineto
          38.02000427246094 18 94 -86 callsubr
          endchar
        </CharString>
        <CharString name="Gdotaccent">
          -81 callsubr
          58 367 151 callgsubr
          175.00999450683594 107 callgsubr
          -6.0000152587890625 131 callgsubr
          hintmask 00000000
          hintmask 11111100
          841.9900054931641 1595.990005493164 rmoveto
          121 87 80 111 -14 callgsubr
          -70 62 -121 129 callsubr
          -12 callsubr
          -112 216 callgsubr
          170 callgsubr
          hvcurveto
          60 callgsubr
          -741.9900054931641 64 callgsubr
          hintmask 11101010
          -101 callgsubr
          vlineto
          hintmask 11111100
          -565 hlineto
          endchar
        </CharString>
        <CharString name="Gtilde">
          -81 callsubr
          27.010009765625 266.99000549316406 -133.010009765625 264 136 callsubr
          hintmask 11101110
          684.9900054931641 1698.979995727539 rmoveto
          hintmask 11110110
          45 callgsubr
          -32.99000549316406 -60 -58.97999572753906 -70 hhcurveto
          hintmask 11101110
          12 callsubr
          -113 -116 -116 132 callgsubr
          hvcurveto
          121 callgsubr
          197 callsubr
          61 55.99000549316406 64 hhcurveto
          141.99000549316406 -844.9799957275391 64 callgsubr
          -101 callgsubr
          -565 vlineto
          endchar
        </CharString>
        <CharString name="H">
          325 630.9799957275391 274 153 callsubr
          521.9999847412109 380 33 callgsubr
          383 630.9900054931641 522 -630.9900054931641 380 -74 callgsubr
          -380 -617 -522 617 -383 vlineto
          endchar
        </CharString>
        <CharString name="Hbar">
          337 572.9799957275391 -56 callsubr
          240 callsubr
          219.99000549316406 -50 callsubr
          385 526.989990234375 385 vstem
          1617.979995727539 1254.990005493164 rmoveto
          174 callgsubr
          267 -385 -267 -526.9900054931641 267 -385 -267 -145 -220 145 -1035 385 572.9900054931641 526.9900054931641 -572.9900054931641 385 1035 147.99000549316406 220 hlineto
          -533 -416.00999450683594 rmoveto
          -526.9900054931641 240 callsubr
          526.9900054931641 -196.02000427246094 hlineto
          endchar
        </CharString>
        <CharString name="Hcircumflex">
          325 630.9799957275391 274 153 callsubr
          521.9999847412109 380 vstem
          413.97999572753906 140 callgsubr
          178 -32 callsubr
          202 callsubr
          192.99000549316406 224 -192.99000549316406 177.99000549316406 116 -285 305.99000549316406 rlineto
          -233.99000549316406 hlineto
          -284.02000427246094 -308 rlineto
          -240.99000549316406 -133 -46 callsubr
          383 630.9900054931641 522 -630.9900054931641 380 -74 callgsubr
          -380 -617 -522 617 -383 vlineto
          endchar
        </CharString>
        <CharString name="I">
          -552 0 -74 callgsubr
          -17 callsubr
          vstem
          185 1521.990005493164 -76 callsubr
          endchar
        </CharString>
        <CharString name="I.uc">
          -42 callsubr
        </CharString>
        <CharString name="IJ">
          248 -332 1853.990005493164 -17 callsubr
          421.989990234375 384 vstem
          185 1521.990005493164 -76 callsubr
          534 -1662.990005493164 rmoveto
          83 -191 108 callgsubr
          -77 callgsubr
          132 callgsubr
          52 callsubr
          -99 -63 -99 -39 rrcurveto
          endchar
        </CharString>
        <CharString name="IJ_acutecomb">
          248 -332 2321.979995727539 -17 callsubr
          421.989990234375 384 vstem
          1015.9900054931641 1667.990005493164 rmoveto
          111 callsubr
          171.99000549316406 83 124 rlinecurve
          -262 129.99000549316406 -77 callsubr
          -79 230 callgsubr
          -784 -2 -64 callsubr
          -47 -144 -76 callsubr
          534 -1662.990005493164 rmoveto
          83 -191 108 callgsubr
          -77 callgsubr
          132 callgsubr
          52 callsubr
          -99 -63 -99 -39 rrcurveto
          endchar
        </CharString>
        <CharString name="Iacute">
          -552 0 1987.990005493164 -17 callsubr
          vstem
          232 1665.990005493164 -64 callsubr
          -47 -144 -76 callsubr
          endchar
        </CharString>
        <CharString name="Ibreve">
          -552 1593.990005493164 195 callgsubr
          -17 callsubr
          vstem
          -8.990005493164062 1962.990005493164 rmoveto
          -222 -3 128 -146.99000549316406 261 hhcurveto
          48 callgsubr
          137 44 callgsubr
          115 callsubr
          140 callsubr
          -5 hvcurveto
          60 callsubr
          hlineto
          193.99000549316406 -441 -76 callsubr
          endchar
        </CharString>
        <CharString name="Icircumflex">
          -552 0 1962.979995727539 -17 callsubr
          vstem
          -24 140 callgsubr
          177.99000549316406 -10 callgsubr
          106 callsubr
          16 callgsubr
          -283.99000549316406 -308 rlineto
          209 -133 -76 callsubr
          endchar
        </CharString>
        <CharString name="Idieresis">
          -552 1581.990005493164 -3 callgsubr
          -17 callsubr
          vstem
          -89 187 callsubr
          116 202 callgsubr
          -53 callsubr
          196 callgsubr
          -1 callgsubr
          -114 218 callgsubr
          114 26 callsubr
          vhcurveto
          -267 -244 -76 callsubr
          endchar
        </CharString>
        <CharString name="Idotaccent">
          -42 callsubr
        </CharString>
        <CharString name="Igrave">
          -552 0 1987.990005493164 -17 callsubr
          vstem
          351.99000549316406 1533.990005493164 rmoveto
          173 65 callsubr
          83 -77 callsubr
          rlinecurve
          -166.99000549316406 -12 -76 callsubr
          endchar
        </CharString>
        <CharString name="Imacron">
          -552 1673.990005493164 234 -17 callsubr
          vstem
          69 1908 rmoveto
          -234 618.9900054931641 234 -618.9900054931641 vlineto
          116 -386 -76 callsubr
          endchar
        </CharString>
        <CharString name="Iogonek">
          -547 19 callsubr
          -17 callsubr
          vstem
          467.99000549316406 -299 rmoveto
          -71 198 callsubr
          239 callgsubr
          65 -4.0200042724609375 hvcurveto
          -6 88.99000549316406 93 callgsubr
          65 77 callgsubr
          53 rrcurveto
          66.00999450683594 13 callgsubr
          -80 callsubr
          76.99000549316406 hlineto
          -104.99000549316406 -58 -128 230 callsubr
          4 135 114 callsubr
          146 hhcurveto
          85 callsubr
          138 callgsubr
          161 callsubr
          -38 -8 -34 hhcurveto
          endchar
        </CharString>
        <CharString name="Itilde">
          -552 1563.990005493164 12 callgsubr
          184.99000549316406 384 hintmask 01100000
          -71 1729.990005493164 rmoveto
          132.99000549316406 -132 rlineto
          -62 callsubr
          33 61 56.02000427246094 64 hhcurveto
          hintmask 10100000
          41 callsubr
          hintmask 01100000
          12 callsubr
          3 callgsubr
          -116 -116 -31 hvcurveto
          256 -208 -76 callsubr
          endchar
        </CharString>
        <CharString name="J">
          -506 -332 1853.990005493164 hstem
          236.99000549316406 384 vstem
          -35 -141 rmoveto
          82.97999572753906 -191 171 -77 callgsubr
          212 callsubr
          52 callsubr
          117 callgsubr
          -63 -99 -39 rrcurveto
          endchar
        </CharString>
        <CharString name="Jcircumflex">
          -506 -332 2295.990005493164 hstem
          236.99000549316406 384 vstem
          174 callsubr
          1655.990005493164 rmoveto
          177.99000549316406 3 callsubr
          223 193 106 callsubr
          -193 178 71 callgsubr
          -284 -308 rlineto
          -55.99000549316406 -1796.990005493164 rmoveto
          82.97999572753906 -191 171 -77 callgsubr
          212 callsubr
          52 callsubr
          117 callgsubr
          -63 -99 -39 rrcurveto
          endchar
        </CharString>
        <CharString name="K">
          162 0 -74 callgsubr
          -50 callsubr
          379 -49 callgsubr
          endchar
        </CharString>
        <CharString name="Kcommaaccent">
          162 -560 2082 -50 callsubr
          379 117 238 callgsubr
          -49 callgsubr
          -557.0200042724609 -194.99000549316406 rmoveto
          -227.99000549316406 -68 callgsubr
          -8 -42 60 callgsubr
          -77 callsubr
          vhcurveto
          -27 vlineto
          165 -4 callgsubr
          rlineto
          38 18 93.99000549316406 -86 callsubr
          endchar
        </CharString>
        <CharString name="L">
          -184 0 286.97999572753906 hstem
          172.99000549316406 386.99000549316406 55 callsubr
          endchar
        </CharString>
        <CharString name="Lacute">
          146 callgsubr
          217.99000549316406 221 callsubr
          173 -132 89 28 177 172 82.99000549316406 124 rlinecurve
          -62 callgsubr
          -45 -144 13 callsubr
        </CharString>
        <CharString name="Lcaron">
          62 callsubr
          -8 callsubr
          237 callsubr
          vstem
          825 1026.990005493164 rmoveto
          157 -41 rlineto
          63 68 4 callsubr
          8.009994506835938 -35 rcurveline
          -652 495 13 callsubr
        </CharString>
        <CharString name="Lcommaaccent">
          -184 0 -5 callsubr
          122 callgsubr
          143 callsubr
          198 callsubr
          238 callgsubr
          hintmask 11000000
          172.99000549316406 1521.990005493164 22 callsubr
          309.97999572753906 -2036.979995727539 rmoveto
          hintmask 10100000
          165 -4 callgsubr
          rlineto
          38 18 93.99000549316406 -86 callsubr
          -227.99000549316406 -68 callgsubr
          -8 -42 -15.020004272460938 -77 callsubr
          vhcurveto
          hintmask 11000000
          -27 vlineto
          endchar
        </CharString>
        <CharString name="Ldot">
          122 0 -5 callsubr
          345.010009765625 438 -50 callsubr
          143 callsubr
          55 callsubr
          688 -679 rmoveto
          129 callsubr
          104 callgsubr
          83 55 callgsubr
          123 hhcurveto
          125.99000549316406 214 callsubr
          -47 callsubr
          -13 callgsubr
          -1 hvcurveto
          39 callsubr
          77 callsubr
          64 callsubr
          -126 130 callgsubr
          -98 -107 -120 vhcurveto
          endchar
        </CharString>
        <CharString name="Lslash">
          146 callgsubr
          559.9799957275391 -5 callsubr
          rmoveto
          453 vlineto
          325 -35 callgsubr
          157 callsubr
          196 -252 -93 rlineto
          560 -386.99000549316406 -703 vlineto
          -155 -57 177 callgsubr
          -194 82 30 rlineto
          -598 -11 callsubr
          vlineto
          endchar
        </CharString>
        <CharString name="M">
          676 -8.990005493164062 1530.979995727539 hstem
          64 1854.990005493164 vstem
          239.97999572753906 1521.990005493164 -49 callsubr
        </CharString>
        <CharString name="N">
          325 0 -74 callgsubr
          148 callsubr
          1112.990005493164 74 callgsubr
          -670 vlineto
          -100 callgsubr
          hlineto
          endchar
        </CharString>
        <CharString name="NULL">
          -1306 endchar
        </CharString>
        <CharString name="Nacute">
          326 0 1987.990005493164 148 callsubr
          1198 28 callsubr
          -85.00999450683594 -336 rmoveto
          -670 vlineto
          -100 callgsubr
          hlineto
          endchar
        </CharString>
        <CharString name="Ncaron">
          326 0 1963.990005493164 148 callsubr
          939.9900054931641 226 callgsubr
          -174.99000549316406 115 -224 -167 -223 167 -175.99000549316406 -115 225 callgsubr
          173 -36 rmoveto
          -670 vlineto
          -100 callgsubr
          hlineto
          endchar
        </CharString>
        <CharString name="Ncommaaccent">
          326 -560 2082 -50 callsubr
          344.97999572753906 165.00999450683594 274 156 345 vstem
          1112.990005493164 74 callgsubr
          -670 vlineto
          -100 callgsubr
          hlineto
          -255 -1606 rmoveto
          -71 callsubr
          87 callgsubr
          88 callgsubr
          -27 vlineto
          -79 callgsubr
          endchar
        </CharString>
        <CharString name="Ntilde">
          326 1563.990005493164 12 callgsubr
          6 callsubr
          hintmask 01110000
          664.9900054931641 1698 rmoveto
          hintmask 10110000
          63 callgsubr
          31 hvcurveto
          -127 136 rlineto
          -46 -33.02000427246094 -59.99000549316406 -59 -70 hhcurveto
          hintmask 01110000
          -20 callgsubr
          80 callgsubr
          33.02000427246094 60.99000549316406 56.02000427246094 64 hhcurveto
          448 -176 rmoveto
          -670 vlineto
          -100 callgsubr
          hlineto
          endchar
        </CharString>
        <CharString name="O">
          -88 callgsubr
          93 768.9799957275391 -106 callgsubr
        </CharString>
        <CharString name="OE">
          850 -95 callsubr
          285.97999572753906 -269.989990234375 290.97999572753906 351 277.00999450683594 319.00001525878906 -48 callsubr
          -277.99000549316406 293.99000549316406 hstemhm
          -15 callsubr
          390 562.989990234375 377.99000549316406 hintmask 01110110
          1427.990005493164 290.97999572753906 rmoveto
          351.00999450683594 434 277.00999450683594 -434 319 579.0099945068359 284 -957.0099945068359 vlineto
          hintmask 10101110
          -41 vlineto
          -55 35 -27 callgsubr
          23 -105 -1 -392.00999450683594 -52 callgsubr
          -313 -241 -8.990005493164062 -526.0099945068359 -9.009994506835938 -462.99000549316406 249.02000427246094 -323.99000549316406 436 2 39 callsubr
          1 94 26.970001220703125 63 39.02000427246094 rrcurveto
          hintmask 01110110
          -51 1017 290.97999572753906 -639 vlineto
          hintmask 10101110
          -619 -20.990005493164062 rmoveto
          -203 203 callgsubr
          167 321 425 197 61 237 callgsubr
          103.02000427246094 69 -44.02000427246094 -60.99000549316406 45 hvcurveto
          -767 vlineto
          -76 -49.99000549316406 -80.02000427246094 -79 callsubr
          -111 hhcurveto
          endchar
        </CharString>
        <CharString name="Oacute">
          -88 callgsubr
          683.9900054931641 1705.979995727539 rmoveto
          111 callsubr
          172 83.00999450683594 123.99000549316406 rlinecurve
          145 callsubr
          -591 -937 -106 callgsubr
        </CharString>
        <CharString name="Obreve">
          297 -95 callsubr
          278.97999572753906 988.9900054931641 286 56.010009765625 195 callgsubr
          hstemhm
          -70 callsubr
          hintmask 00000000
          hintmask 11111000
          442.97999572753906 10 callgsubr
          hintmask 11011000
          -349.99000549316406 -1194 -106 callgsubr
        </CharString>
        <CharString name="Ocircumflex">
          -88 callgsubr
          427.99000549316406 24 callsubr
          -335 -886 -106 callgsubr
        </CharString>
        <CharString name="Odieresis">
          297 -95 callsubr
          278.97999572753906 988.9900054931641 286 44.010009765625 -3 callgsubr
          hstemhm
          93 391.97999572753906 -122 192 callgsubr
          -182.989990234375 391.97999572753906 hintmask 00000000
          hintmask 11101100
          362.99000549316406 -31 callsubr
          hintmask 11010010
          -810.9900054931641 -997.0099945068359 -106 callgsubr
        </CharString>
        <CharString name="Ograve">
          -88 callgsubr
          826 1537.990005493164 rmoveto
          -6 -6 0 -1 -6 hvcurveto
          169 129 97 callsubr
          77 -118 178 -169 133 callsubr
          -34 rlinecurve
          -407 -20.990005493164062 -286 -220 -10 -527.0099945068359 -9.009994506835938 -483.99000549316406 263 -310 449 9.020004272460938 416.99000549316406 -19 callgsubr
          286 230.99000549316406 10 540 9.009994506835938 483 -260.02000427246094 304 -431.99000549316406 -12 rrcurveto
          -23.020004272460938 -1275 rmoveto
          -214 -104 207.02000427246094 287.99000549316406 373 150 121 184.02000427246094 203 95 -193 -285 -78 callsubr
          hvcurveto
          endchar
        </CharString>
        <CharString name="Ohungarumlaut">
          -88 callgsubr
          451.99000549316406 1657 rmoveto
          179 -28 callgsubr
          64 29 153 160 81 156 callsubr
          rlinecurve
          -258 118 -35 -27 callgsubr
          -143 -187 -41 -40 rlinecurve
          517 hmoveto
          182 -28 callgsubr
          -45 callgsubr
          29 154 164 -69 callsubr
          118 rlinecurve
          -256 -67 callsubr
          -37.99000549316406 -36 callsubr
          -146 -186 -41 -40 rlinecurve
          -876 -888.0200042724609 -106 callgsubr
        </CharString>
        <CharString name="Omacron">
          297 -95 callsubr
          278.97999572753906 988.9900054931641 286 136.010009765625 234 hstemhm
          93 391.97999572753906 36.010009765625 619 -23 391.97999572753906 hintmask 00000000
          hintmask 11111000
          520.9900054931641 127 callgsubr
          hintmask 11110100
          -428 -1139.020004272461 -106 callgsubr
        </CharString>
        <CharString name="Oslash">
          -88 callgsubr
          1128.979995727539 1483.979995727539 -89 callgsubr
        </CharString>
        <CharString name="Oslashacute">
          -88 callgsubr
          1107.990005493164 1897.979995727539 rmoveto
          145 callsubr
          111 callsubr
          172 83 123.99000549316406 rlinecurve
          21 -414 -89 callgsubr
        </CharString>
        <CharString name="Otilde">
          297 -95 callsubr
          278.97999572753906 988.9900054931641 286 26.010009765625 12 callgsubr
          -70 callsubr
          hintmask 11011100
          380.99000549316406 183 callgsubr
          197 callsubr
          61 56.02000427246094 64 hhcurveto
          hintmask 11101100
          63 callgsubr
          31 hvcurveto
          -127.02000427246094 136 rlineto
          -46 -33 -60 -59 -70 hhcurveto
          hintmask 11011100
          12 callsubr
          3 callgsubr
          -116 -116 212 callsubr
          hvcurveto
          -287.99000549316406 -961 -106 callgsubr
        </CharString>
        <CharString name="P">
          137 callsubr
          -50 callsubr
          -3 callgsubr
          408.00999450683594 373 vstem
          172.99000549316406 1521.990005493164 -63 callsubr
        </CharString>
        <CharString name="Q">
          297 -355 272.99000549316406 1333.989990234375 286 hstem
          -70 callsubr
          vstem
          1345.990005493164 -82 rmoveto
          -158 -132 12 -69 callsubr
          -58 hvcurveto
          305 72 198 234.99000549316406 -19 callgsubr
          448 9.009994506835938 483 -260.02000427246094 304 -431.99000549316406 -12 -85 callsubr
          -8 -445.99000549316406 223 -299.00999450683594 143 callsubr
          -35.97999572753906 rrcurveto
          -252.99000549316406 78.00999450683594 199.99000549316406 -38 callgsubr
          329.02000427246094 hhcurveto
          -15 callsubr
          109 27 19 36 hvcurveto
          256 vlineto
          -24 callsubr
          -40 -101 60 callgsubr
          -57 hhcurveto
          -861 839.9900054931641 rmoveto
          373 150 121 184.02000427246094 203 95 -193 -285 -78 callsubr
          -214 -104 207.02000427246094 287.99000549316406 vhcurveto
          endchar
        </CharString>
        <CharString name="R">
          -6 callsubr
          1368.990005493164 110 -55 callsubr
          382.00999450683594 -298 100.99000549316406 -268.97999572753906 vhcurveto
          -99 callgsubr
          endchar
        </CharString>
        <CharString name="Racute">
          -6 callsubr
          1368.990005493164 110 -55 callsubr
          360 -264.99000549316406 111 -256 11 vhcurveto
          92 35 169 166 80 120 171 callgsubr
          rcurveline
          -77 callsubr
          23 callsubr
          168 -129 rcurveline
          1 -11 -11 0 -11 -99 callgsubr
          endchar
        </CharString>
        <CharString name="Rcaron">
          -6 callsubr
          890 1558 rmoveto
          281.99000549316406 51 callsubr
          282 220 callsubr
          478.99000549316406 -1448 -55 callsubr
          382.00999450683594 -298 100.99000549316406 -268.97999572753906 vhcurveto
          -99 callgsubr
          endchar
        </CharString>
        <CharString name="Rcommaaccent">
          164 537.9799957275391 257 474 269 122 callgsubr
          379.97999572753906 99.00999450683594 274 37.010009765625 2 callsubr
          hintmask 11101000
          1368.990005493164 110 -55 callsubr
          382.00999450683594 -298 100.99000549316406 -268.97999572753906 vhcurveto
          -99 callgsubr
          hintmask 11111000
          274 -1334.979995727539 rmoveto
          70 callgsubr
          23.990005493164062 98 callsubr
          -27 vlineto
          165 -4 callgsubr
          rlineto
          38.02000427246094 18 93.97999572753906 -86 callsubr
          endchar
        </CharString>
        <CharString name="S">
          -65 callsubr
          129.99000549316406 -69 callsubr
          rmoveto
          -2 callgsubr
          -101 callsubr
          -47 -296 rcurveline
          endchar
        </CharString>
        <CharString name="Sacute">
          -65 callsubr
          747.9900054931641 907.9799957275391 rmoveto
          -184 84 -60 callsubr
          50 92.02000427246094 vvcurveto
          76.99000549316406 66 51.02000427246094 144 133 143 -49 -48 60.99000549316406 vhcurveto
          59 286 -52 30 -132 51 -206 5 rlinecurve
          91 37 168.02000427246094 164 79.99000549316406 120 171 callgsubr
          rcurveline
          -26.009994506835938 23 callsubr
          168.02000427246094 -128 rcurveline
          -24 hlineto
          -322.00999450683594 -221 -140 -277 -245 163 -135 194 -92 hvcurveto
          227 -108 82 -38 -96.99000549316406 vvcurveto
          -38 callgsubr
          -62.02000427246094 -39 -143.99000549316406 vhcurveto
          -160.02000427246094 -1 -168 56 -74 42 -47 -296 rcurveline
          -2 callgsubr
          358.02000427246094 197 177.99000549316406 273 239 -156 116 -262 117.99000549316406 hvcurveto
          endchar
        </CharString>
        <CharString name="Scaron">
          -65 callsubr
          264.99000549316406 217 callsubr
          181 callgsubr
          -291 rlineto
          234 -24 callgsubr
          -135 -1771.009994506836 rmoveto
          -2 callgsubr
          -101 callsubr
          -47 -296 rcurveline
          endchar
        </CharString>
        <CharString name="Scedilla">
          -77 35 callgsubr
          256 289.99000549316406 985 275.97999572753906 hstemhm
          -67 callsubr
          2 callsubr
          58.99998474121094 241.99000549316406 -0.9799957275390625 380.97999572753906 hintmask 11110100
          1165.990005493164 435 rmoveto
          239 -156 116 -262 117.99000549316406 vhcurveto
          -99 callsubr
          -47 -296 rcurveline
          hintmask 11111000
          52 179 callsubr
          162 -48 185.02000427246094 -11 10 -77 callsubr
          6 -32 -1 -48 -34 callsubr
          86 -27 54 rrcurveto
          hintmask 11110100
          272 40 147 164.99000549316406 236.02000427246094 vvcurveto
          endchar
        </CharString>
        <CharString name="Scircumflex">
          -65 callsubr
          261.97999572753906 140 callgsubr
          111 callgsubr
          106 callsubr
          -54 callsubr
          -233.99000549316406 hlineto
          -284.02000427246094 -308 rlineto
          -132 -1577 rmoveto
          -2 callgsubr
          -101 callsubr
          -47 -296 rcurveline
          endchar
        </CharString>
        <CharString name="Scommaaccent">
          -77 -95 callsubr
          292.97999572753906 985.0000152587891 275.97999572753906 hstemhm
          -67 callsubr
          2 callsubr
          43.00999450683594 274 -17 380.97999572753906 hintmask 11101000
          129.99000549316406 -69 callsubr
          rmoveto
          -2 callgsubr
          -101 callsubr
          -47 -296 rcurveline
          375.00999450683594 -592.9700012207031 rmoveto
          hintmask 11110000
          78 callsubr
          -71 callsubr
          -8 88 callgsubr
          hintmask 11101000
          -27 vlineto
          endchar
        </CharString>
        <CharString name="T">
          -53 116 callgsubr
          105 callsubr
          hstem
          154 callsubr
          vstem
          435 116 callgsubr
          -33 callgsubr
          endchar
        </CharString>
        <CharString name="Tbar">
          -53 557.9900054931641 -4 callsubr
          431.99998474121094 105 callsubr
          hstem
          154 callsubr
          vstem
          1224.990005493164 116 callgsubr
          rmoveto
          105 callsubr
          -1197 128 callsubr
          -431.99000549316406 -258.00999450683594 -238 258.00999450683594 -558 384 558 285 238 -285 431.99000549316406 406 vlineto
          endchar
        </CharString>
        <CharString name="Tcaron">
          -53 116 callgsubr
          105 callsubr
          hstem
          154 callsubr
          vstem
          226.97999572753906 187 callgsubr
          129 callgsubr
          5 callgsubr
          208.02000427246094 -621.0200042724609 -33 callgsubr
          endchar
        </CharString>
        <CharString name="Thorn">
          87 234.99000549316406 269 518 276.99000549316406 153 callsubr
          402.00999450683594 232 callgsubr
          vstem
          798.9900054931641 1298.979995727539 rmoveto
          -82 -88 59 callsubr
          -4.0200042724609375 157 callsubr
          hvcurveto
          235 -383 -80 callsubr
          383 244.97999572753906 vlineto
          -4 43 76.99000549316406 -6 99 hhcurveto
          362 197 218 351.99000549316406 323.00999450683594 -201 108 callgsubr
          -334 hvcurveto
          -109 -794.9900054931641 rmoveto
          -41 -45 0 8.990005493164062 -48 hvcurveto
          494 vlineto
          42 9.009994506835938 -28 callsubr
          5 231 callsubr
          1 rrcurveto
          180 5 87 -91 -145 vvcurveto
          -227 -21 callgsubr
          -60 174 callgsubr
          vhcurveto
          endchar
        </CharString>
        <CharString name="U">
          -73 callsubr
          137.99000549316406 637.9900054931641 -104 callgsubr
        </CharString>
        <CharString name="Uacute">
          -73 callsubr
          628 1665.990005493164 -64 callsubr
          -490 -1028 -104 callgsubr
        </CharString>
        <CharString name="Ubreve">
          239 -95 callsubr
          -23 callgsubr
          1309.990005493164 195 callgsubr
          hstem
          139.97999572753906 378.50999450683594 513.4900054931641 376.00999450683594 vstem
          143 callsubr
          1962.990005493164 rmoveto
          34 callsubr
          48 callgsubr
          137 176 callgsubr
          222 -52 callgsubr
          193 callsubr
          -19 -92 115 callsubr
          140 callsubr
          -5.0200042724609375 hvcurveto
          60 callsubr
          hlineto
          -249 -1325 -104 callgsubr
        </CharString>
        <CharString name="Ucircumflex">
          -73 callsubr
          372 140 callgsubr
          111 callgsubr
          106 callsubr
          110 callsubr
          -234 -1017 -104 callgsubr
        </CharString>
        <CharString name="Udieresis">
          239 -95 callsubr
          -23 callgsubr
          1297.990005493164 -3 callgsubr
          224 callgsubr
          -211.49998474121094 192 callgsubr
          -212.010009765625 376.00999450683594 hintmask 11100100
          307 187 callsubr
          vhcurveto
          hintmask 11010100
          116 89 -53 callsubr
          196 callgsubr
          -1 callgsubr
          hvcurveto
          hintmask 11100100
          -114 186 callgsubr
          hvcurveto
          hintmask 11101000
          229 callsubr
          114 vhcurveto
          hintmask 11100100
          15 callgsubr
          hvcurveto
          hintmask 11101000
          -115 186 callgsubr
          hvcurveto
          hintmask 11100100
          -710 -1128 -104 callgsubr
        </CharString>
        <CharString name="Ugrave">
          -73 callsubr
          748.9900054931641 44 callsubr
          95 callgsubr
          20 callgsubr
          79 126 callsubr
          -611 -896 -104 callgsubr
        </CharString>
        <CharString name="Uhungarumlaut">
          -73 callsubr
          395.97999572753906 1657 rmoveto
          179.02000427246094 -28 callgsubr
          118 callgsubr
          -27 callgsubr
          164 callgsubr
          -28 callgsubr
          67.00999450683594 29 175 callgsubr
          164 78.00999450683594 118 rlinecurve
          -256 -67 callsubr
          -38 -36 callsubr
          -145.99000549316406 -186 -41 -40 rlinecurve
          -775 -1019 -104 callgsubr
        </CharString>
        <CharString name="Umacron">
          239 -95 callsubr
          -23 callgsubr
          1389.990005493164 234 hstem
          139.97999572753906 378.50999450683594 513.4900054931641 376.00999450683594 vstem
          465.97999572753906 127 callgsubr
          -327.99000549316406 -1270 -104 callgsubr
        </CharString>
        <CharString name="Uogonek">
          239 19 callsubr
          283.00999450683594 -23 callgsubr
          hstem
          139.97999572753906 378.50999450683594 85.50001525878906 297 130.989990234375 376.00999450683594 vstem
          1031.990005493164 74 callgsubr
          -837 vlineto
          -312.00999450683594 -86 -16 callsubr
          -171 -170.99000549316406 -89 81 320 2 vhcurveto
          -48 callgsubr
          837 rlineto
          -378 hlineto
          -4 -884 -1 -391 171 -260.99000549316406 466.99000549316406 -52 callgsubr
          rlinecurve
          158 callsubr
          -61 -80 -91 5 -124 rrcurveto
          -130.99000549316406 -48 callgsubr
          131.99000549316406 -93 146 hhcurveto
          105 85.02000427246094 24 -28 callsubr
          67.99000549316406 236 callsubr
          -37 -37.99000549316406 -8 -34 hhcurveto
          -72 -57 239 callgsubr
          65 -4 hvcurveto
          -1 -35 callsubr
          -20 callsubr
          70 71 -45 callgsubr
          rrcurveto
          269 76 -35 callgsubr
          219 323.00999450683594 vvcurveto
          890 -376.02000427246094 vlineto
          endchar
        </CharString>
        <CharString name="Uring">
          239 -95 callsubr
          -23 callgsubr
          1209.990005493164 170 250.989990234375 163 224 callgsubr
          -110.50999450683594 205 317.99000549316406 204 201 callsubr
          376.00999450683594 hintmask 11110010
          407.97999572753906 1795.990005493164 rmoveto
          -193 -75 callsubr
          134 -109 229 hhcurveto
          187.99000549316406 177 -69 callsubr
          217 40 callgsubr
          hvcurveto
          196 1 115 callsubr
          93 -222 hhcurveto
          -177 -187.99000549316406 -65.99000549316406 -216 -4.0200042724609375 hvcurveto
          hintmask 11101100
          523 -10 rmoveto
          -106 -64 -17 228 callsubr
          -92 -66 -62 callsubr
          84.00999450683594 104 75 214 callgsubr
          83.00999450683594 -1 hvcurveto
          92 -14 callsubr
          67.99000549316406 113 callgsubr
          -16 callsubr
          vvcurveto
          hintmask 11110010
          -792.9900054931641 -1148 -104 callgsubr
        </CharString>
        <CharString name="Utilde">
          239 -95 callsubr
          -23 callgsubr
          1279.990005493164 12 callgsubr
          139.97999572753906 378.50999450683594 513.4900054931641 376.00999450683594 hintmask 10111000
          325 183 callgsubr
          33 61 56.02000427246094 64 hhcurveto
          hintmask 11011000
          41 callsubr
          hintmask 10111000
          12 callsubr
          -23 callsubr
          -116 -116 132 callgsubr
          hvcurveto
          -187 -1092 -104 callgsubr
        </CharString>
        <CharString name="V">
          104 46 callsubr
          1525.979995727539 hstem
          -12 1433.979995727539 vstem
          -12 74 callgsubr
          553 -1525.979995727539 rlineto
          331.99000549316406 hlineto
          549 1525.979995727539 rlineto
          -406 hlineto
          -227 -769 -76 -296 -76 296 -243 769 rlineto
          -405.99000549316406 hlineto
          endchar
        </CharString>
        <CharString name="W">
          692 178 callgsubr
          1531.979995727539 168 callsubr
          1643.990005493164 1521.990005493164 -98 callsubr
        </CharString>
        <CharString name="Wacute">
          692 178 callgsubr
          1997.979995727539 168 callsubr
          1363.990005493164 1857.990005493164 rmoveto
          -62 callgsubr
          173 -132 89 9 callgsubr
          280 -336 -98 callsubr
        </CharString>
        <CharString name="Wcircumflex">
          692 178 callgsubr
          1972.979995727539 168 callsubr
          986.9900054931641 1733.979995727539 rmoveto
          106 callsubr
          -58 callgsubr
          111 callgsubr
          rlineto
          657 -211.99000549316406 -98 callsubr
        </CharString>
        <CharString name="Wdieresis">
          692 1581.990005493164 -3 callgsubr
          hstemhm
          520.9900054931641 192 callgsubr
          231 callgsubr
          711.9900054931641 -30 callsubr
          391 -60 -98 callsubr
        </CharString>
        <CharString name="Wgrave">
          692 178 callgsubr
          1997.979995727539 168 callsubr
          962.9900054931641 1533.990005493164 rmoveto
          -81 callgsubr
          65 callsubr
          83.00999450683594 -77 callsubr
          rlinecurve
          681 -12 -98 callsubr
        </CharString>
        <CharString name="X">
          89 0 1522.990005493164 hstem
          13.979995727539062 1370 vstem
          927.9900054931641 756 rmoveto
          442 766 rlineto
          -400 hlineto
          -197 -382 -59 -116 -60 116 -209 383 -419 -1 438 -743 -450 -779 rlineto
          402 hlineto
          206 391.99000549316406 63 131 64 -131 213 -391.99000549316406 rlineto
          422.00999450683594 hlineto
          -456.00999450683594 756 rlineto
          endchar
        </CharString>
        <CharString name="Y">
          -17 0 -74 callgsubr
          hstem
          448 86 callsubr
          vstem
          1341.990005493164 1521.990005493164 -82 callsubr
          -26 callgsubr
          155 callsubr
        </CharString>
        <CharString name="Yacute">
          185 callsubr
          1041 28 callsubr
          301 -336 -82 callsubr
          -26 callgsubr
          155 callsubr
        </CharString>
        <CharString name="Ycircumflex">
          -17 0 1962.979995727539 hstem
          448 86 callsubr
          vstem
          199 callsubr
          1733.979995727539 rmoveto
          91 callgsubr
          178.02000427246094 -32 callsubr
          202 callsubr
          192.99000549316406 rlineto
          678.0099945068359 -211.99000549316406 -82 callsubr
          -26 callgsubr
          155 callsubr
        </CharString>
        <CharString name="Ydieresis">
          -17 1581.990005493164 -3 callgsubr
          hstemhm
          197.97999572753906 396 -145.97999572753906 86 callsubr
          -98.02000427246094 396 hintmask 00000000
          hintmask 11010000
          389 1582 rmoveto
          116 88.99000549316406 -53 callsubr
          -71.99000549316406 -1 callgsubr
          235 callsubr
          -93 208 callsubr
          541 hmoveto
          116 88.99000549316406 -53 callsubr
          -70.99000549316406 -1 callgsubr
          -115 -93.02999877929688 208 callsubr
          412 -60 -82 callsubr
          hintmask 10100000
          -26 callgsubr
          hintmask 11010000
          155 callsubr
        </CharString>
        <CharString name="Ygrave">
          185 callsubr
          639 22 callgsubr
          75 callsubr
          126 callsubr
          703 -12 -82 callsubr
          -26 callgsubr
          155 callsubr
        </CharString>
        <CharString name="Z">
          27 callgsubr
          35.97999572753906 -35 callsubr
          -73 callgsubr
        </CharString>
        <CharString name="Zacute">
          27 callgsubr
          529 1665.990005493164 -64 callsubr
          -493.02000427246094 -1582 -73 callgsubr
        </CharString>
        <CharString name="Zcaron">
          27 callgsubr
          275.97999572753906 219 callsubr
          235 callgsubr
          53 callgsubr
          -224.02000427246094 -167 -222.99000549316406 154 callgsubr
          -240 -1765.009994506836 -73 callgsubr
        </CharString>
        <CharString name="Zdotaccent">
          -4 0 30 callgsubr
          72.99998474121094 367 hstemhm
          480.99000549316406 107 callgsubr
          hintmask 00000000
          hintmask 11110000
          480.99000549316406 132 callsubr
          rmoveto
          -112 74 170 callgsubr
          -56 callgsubr
          129 callsubr
          -12 callsubr
          vhcurveto
          -445.00999450683594 -1688 -73 callgsubr
        </CharString>
        <CharString name="a">
          -88 callsubr
          hstem
          56 callsubr
          198 callgsubr
          131 callsubr
          vstem
          629.9900054931641 1159.990005493164 -107 callgsubr
        </CharString>
        <CharString name="aacute">
          -88 callsubr
          hstem
          56 callsubr
          198 callgsubr
          131 callsubr
          vstem
          1068.990005493164 1634.979995727539 29 callgsubr
          139 callsubr
          89 callsubr
          -439 -474.99000549316406 -107 callgsubr
        </CharString>
        <CharString name="abreve">
          -88 callsubr
          125.010009765625 242.99000549316406 38 callsubr
          -213.99000549316406 227 276 131 callsubr
          hintmask 11110110
          639 1285 rmoveto
          240.99000549316406 90 callgsubr
          -52 callgsubr
          hvcurveto
          -224 hlineto
          -48 59 callsubr
          -14 -111 -138 hhcurveto
          -143.02000427246094 190 callgsubr
          -232.02000427246094 -75 callsubr
          134.99000549316406 159 callsubr
          254.02000427246094 hhcurveto
          -9.009994506835938 -125.00999450683594 17 callgsubr
          hintmask 11111010
          -7 callgsubr
          hintmask 11110110
          315 -134 116 -360 vhcurveto
          hintmask 11111010
          -18 -948 rmoveto
          -75 -70 47 107.99000549316406 81.02000427246094 46 28 43 17 hvcurveto
          40 19.009994506835938 88 14.990005493164062 72 1 rrcurveto
          -268 vlineto
          -22 -21.009994506835938 -64 -79 callsubr
          -59 hhcurveto
          endchar
        </CharString>
        <CharString name="acircumflex">
          -88 callsubr
          hstem
          56 callsubr
          198 callgsubr
          131 callsubr
          vstem
          639 81 callgsubr
          -305 117 callsubr
          176 -114 246 callgsubr
          rlineto
          -9.009994506835938 -315 -107 callgsubr
        </CharString>
        <CharString name="acute">
          -606 1237.990005493164 586.9900054931641 hstem
          36.99000549316406 582 vstem
          36.99000549316406 1396 rmoveto
          45 callsubr
          -243 189 -95 -153 -151 -182.99000549316406 -93 -93 rlinecurve
          endchar
        </CharString>
        <CharString name="acute.cap">
          -629 1533.990005493164 454 hstem
          180 callsubr
          521.9900054931641 vstem
          180 callsubr
          221 callsubr
          -81 callgsubr
          -132 202 callgsubr
          28 177 172 82.99000549316406 124 rlinecurve
          -62 callgsubr
          endchar
        </CharString>
        <CharString name="adieresis">
          -88 callsubr
          116 callsubr
          393.99000549316406 38 callsubr
          -283.99000549316406 393.00999450683594 124.97999572753906 392 -336.989990234375 131 callsubr
          hintmask 11110101
          372 1280 rmoveto
          115 202 callgsubr
          1 callsubr
          -117 -23 callsubr
          -93 222 callsubr
          113 hvcurveto
          hintmask 11110110
          518 hmoveto
          115 123 callgsubr
          -111 76 -78.99000549316406 113 hvcurveto
          hintmask 11111001
          -260.00999450683594 129 callsubr
          -107 callgsubr
        </CharString>
        <CharString name="ae">
          -18 callgsubr
          1792 692.9799957275391 -96 callsubr
        </CharString>
        <CharString name="aeacute">
          -18 callgsubr
          1368.990005493164 1634.979995727539 rmoveto
          -243 189 -95.00999450683594 -72 callgsubr
          29 callsubr
          89 callsubr
          423.02000427246094 -942 -96 callsubr
        </CharString>
        <CharString name="agrave">
          -88 callsubr
          hstem
          56 callsubr
          198 callgsubr
          131 callsubr
          vstem
          600.9900054931641 126 callgsubr
          -154.99000549316406 99 callgsubr
          29 -61 -107 callgsubr
        </CharString>
        <CharString name="amacron">
          -88 callsubr
          243 -4 callsubr
          38 callsubr
          -137.99000549316406 619 -192 131 callsubr
          hintmask 00000000
          hintmask 11110100
          948 1640.979995727539 rmoveto
          -619 -238 619 238 hlineto
          hintmask 11111010
          -318.00999450683594 -481 -107 callgsubr
        </CharString>
        <CharString name="ampersand">
          234 -95 callsubr
          219.97999572753906 -219.97999572753906 48 callgsubr
          1080.990005493164 233 hstemhm
          60.99000549316406 105 callgsubr
          -166.99000549316406 213 callgsubr
          283.00999450683594 303 -2 292 hintmask 00000000
          hintmask 10110010
          1311.990005493164 238.97999572753906 rmoveto
          76 83 48 -64 callgsubr
          166.99000549316406 vvcurveto
          95.00999450683594 -9.020004272460938 -62 callsubr
          -6 25 vhcurveto
          -293.99000549316406 hlineto
          -48 callgsubr
          -28 14.009994506835938 -42 -93 vvcurveto
          144 callsubr
          -17 -76.97999572753906 -38.99000549316406 -55 vhcurveto
          -91.02000427246094 214 callsubr
          -107.99000549316406 134 -64 86 rrcurveto
          hintmask 01101100
          173 86 148 110 245 vvcurveto
          212 -176 162 -272 -280 -181 -144 -248 -140 58 -116 86 callgsubr
          -105 vhcurveto
          hintmask 01110100
          -181 -80 -126 -115 -188 vvcurveto
          -270.99000549316406 224 -154.99000549316406 455.99000549316406 118 111 28.970001220703125 38.02000427246094 92 vhcurveto
          hintmask 10110010
          -40 76 241 callgsubr
          95 callgsubr
          111 hhcurveto
          66 46 callgsubr
          7 -19 callgsubr
          35 hvcurveto
          216 callsubr
          vlineto
          114 callsubr
          144 callsubr
          12 23 -51 hvcurveto
          hintmask 01101100
          -607.9900054931641 1074.009994506836 rmoveto
          110 29 158 callgsubr
          -59.99000549316406 -23 callsubr
          -60 -84 112 callsubr
          -60.99000549316406 hvcurveto
          -16 callsubr
          112 -38.02000427246094 51 89 vvcurveto
          -35 callsubr
          52 66 92.02000427246094 vhcurveto
          -6 -1081 rmoveto
          hintmask 01110100
          -213 -81 75 callsubr
          117 86 callgsubr
          39 56 71 47 hvcurveto
          86 142 callsubr
          -35 callgsubr
          115 callsubr
          107.99000549316406 -114 rrcurveto
          hintmask 01101100
          -8 -35.99000549316406 -42 -4 -51 hhcurveto
          endchar
        </CharString>
        <CharString name="aogonek">
          -43 19 callsubr
          283.00999450683594 227.97999572753906 316.00001525878906 177.99000549316406 191.99998474121094 262 38 callsubr
          114.99998474121094 305 -130.989990234375 131 callsubr
          hintmask 11111010
          1041.979995727539 -95 callsubr
          rmoveto
          82 744.9799957275391 hlineto
          315 -134 116 -360 -37 callsubr
          vhcurveto
          75 -218 rlineto
          47 102.00999450683594 159 34 82.99000549316406 hhcurveto
          171 37 -24 -99 hvcurveto
          -69 vlineto
          -143 -184 -8.990005493164062 -60 -139 hvcurveto
          -28 callgsubr
          -54 -27 callgsubr
          -100.99000549316406 -134 vvcurveto
          -212 147 -151.97999572753906 225 153 100.99000549316406 55.99000549316406 55.99000549316406 64 vhcurveto
          -8 vlineto
          -53 12 -77 callsubr
          23 -12.979995727539062 vhcurveto
          hintmask 11111100
          -115 -59 -118 -102.00999450683594 5 -142.99000549316406 rrcurveto
          -131 4.0099945068359375 -15 callgsubr
          114 callsubr
          146 hhcurveto
          113 -69 callsubr
          24 -28 callsubr
          67.00999450683594 236 callsubr
          -37 161 callsubr
          -8 -35 hhcurveto
          -71 -50 23 65 -4 hvcurveto
          hintmask 11111010
          -5 84.00999450683594 71 60.99000549316406 88.99000549316406 231 callsubr
          rrcurveto
          -430 227.97999572753906 rmoveto
          -75 -70 47 107.99000549316406 81.02000427246094 46 28 43 17 hvcurveto
          40 19.009994506835938 88 14.990005493164062 72 1 rrcurveto
          -268 vlineto
          -22 -21.009994506835938 -64 -79 callsubr
          -59 hhcurveto
          endchar
        </CharString>
        <CharString name="approxequal">
          140 192 280.97999572753906 -123 278.99000549316406 78.02000427246094 281 -123 278.99000549316406 hstemhm
          184.99000549316406 1072.979995727539 hintmask 01011000
          185 908.9799957275391 rmoveto
          144 174 callgsubr
          rlineto
          -62 callsubr
          43 46 callgsubr
          60 97 hhcurveto
          hintmask 01101000
          159 18 -158 210 hhcurveto
          181 138 141 82 174 callsubr
          hvcurveto
          -127 162 rlineto
          -42 -41 -58 -61.99000549316406 135 callsubr
          -74.02000427246094 -22 hvcurveto
          7 -514.9900054931641 rmoveto
          143.99000549316406 -148 rlineto
          44 -28 callsubr
          55 59.99000549316406 -15 callsubr
          hhcurveto
          hintmask 10011000
          159 18 -157.97999572753906 210 hhcurveto
          181 138 140.97999572753906 82 174 callsubr
          hvcurveto
          -127 162 rlineto
          180 callgsubr
          -41 -58 -62 135 callsubr
          -74 -22 hvcurveto
          endchar
        </CharString>
        <CharString name="aring">
          -88 callsubr
          135.010009765625 169 277.989990234375 163 38 callsubr
          -193.00001525878906 205 277.010009765625 131 callsubr
          -326.97999572753906 115 callgsubr
          hintmask 1111101100000000
          634 1294.990005493164 rmoveto
          hintmask 1111101010000000
          187.99000549316406 177 241 callgsubr
          217 40 callgsubr
          hvcurveto
          195.99000549316406 1 115 callsubr
          106 -222 hhcurveto
          -177 -186.99000549316406 -27 callgsubr
          -217 -5.0200042724609375 hvcurveto
          hintmask 1111101100000000
          -192 -75 callsubr
          134 -122 229 hhcurveto
          hintmask 1111101010000000
          -48 callgsubr
          447 rmoveto
          92 -1 68.00999450683594 -52 -89.99000549316406 vvcurveto
          -105 -64 212 callsubr
          112 callsubr
          1 vhcurveto
          -92 -66 58 -35 callsubr
          196 callsubr
          75 33 83 -1 hvcurveto
          hintmask 1111110100000000
          -7 -582 -107 callgsubr
        </CharString>
        <CharString name="asciicircum">
          84 489.97999572753906 1040.990005493164 hstem
          137.99000549316406 1113.979995727539 vstem
          467.99000549316406 489.97999572753906 rmoveto
          -330 hlineto
          437 1041 rlineto
          240.99000549316406 hlineto
          436 -1041 rlineto
          -325 hlineto
          -232 585.0200042724609 -227 -585.0200042724609 rlineto
          endchar
        </CharString>
        <CharString name="asciitilde">
          140 631.9900054931641 281 -123 278.99000549316406 hstemhm
          189.99000549316406 1066 hintmask 01100000
          189.99000549316406 833.9900054931641 rmoveto
          144 174 callgsubr
          rlineto
          -62 callsubr
          43 46 callgsubr
          60 97.02000427246094 hhcurveto
          hintmask 10100000
          -8 callgsubr
          18 -158 210 hhcurveto
          181 137.99000549316406 141 82 21.020004272460938 hvcurveto
          -127.02000427246094 162 rlineto
          -42 -40.97999572753906 -58.02000427246094 -62 -98 hhcurveto
          hintmask 01100000
          -145 -41 156 -210.99000549316406 hhcurveto
          -183 -140 -161 -74 -22 hvcurveto
          endchar
        </CharString>
        <CharString name="asterisk">
          106 583.9799957275391 1173.990005493164 hstem
          132.99000549316406 1145.990005493164 vstem
          606.9900054931641 904.9900054931641 rmoveto
          -29 -321 rlineto
          271.00999450683594 hlineto
          -37 323.00999450683594 -3 18.990005493164062 180 callgsubr
          128 -2 13 rlinecurve
          123 -52 callsubr
          254 -188 137 251 -292 156 callsubr
          -165 39.02000427246094 163 45 287 134 -127 241.99000549316406 238 callsubr
          -192 -24 callsubr
          -12 -92 -105 -10.020004272460938 -9 rlinecurve
          44 165 27 315.97999572753906 rlineto
          -272 hlineto
          40 -320.97999572753906 2 -20 41.99000549316406 -128 2 94 callgsubr
          rlinecurve
          -118 -13 callgsubr
          -273 -47 callgsubr
          -123.99000549316406 -243 293.99000549316406 -131 17 178 callsubr
          133 -27.009994506835938 12 -4 rlinecurve
          130 callsubr
          -42 -289.00999450683594 -139 134 -244 260.02000427246094 193 116 127 -43 -163 rlineto
          endchar
        </CharString>
        <CharString name="at">
          939 -461 190 266.00999450683594 210.97999572753906 -210.97999572753906 257.97999572753906 608.0000152587891 218.99000549316406 271.99998474121094 190.99000549316406 hstemhm
          142.99000549316406 225.99000549316406 235.00999450683594 181 callgsubr
          377.00999450683594 233.17999267578125 372.82000732421875 220.99000549316406 hintmask 1101111110000000
          1262.979995727539 182.99000549316406 rmoveto
          115 callsubr
          9.009994506835938 70 -50.99000549316406 134 hhcurveto
          296 317.99000549316406 251.97999572753906 550.0099945068359 483.99000549316406 -360 262 -475 -601 -511 -445.99000549316406 -669 -619.9900054931641 415 -269 482 286 157 77 65 77 callgsubr
          hvcurveto
          -46 65 callgsubr
          rlineto
          -47.99000549316406 -86 -121 -70 238 callsubr
          hhcurveto
          -332 -359 163.99000549316406 533.9900054931641 589 421.00999450683594 336 460 291.97999572753906 327 -127 -454 -365 -174 -200 -145 -53 -17 58 158 33 hvcurveto
          41 185 57.02000427246094 305 -59 callgsubr
          144 -197 -31 rcurveline
          35 -56 -94 20.009994506835938 77 callsubr
          hhcurveto
          -425.99000549316406 -181 -363.00999450683594 -274 -6 hvcurveto
          hintmask 1011111110000000
          -299.99000549316406 -7 161 174 callgsubr
          148 hhcurveto
          -8 callgsubr
          176 callsubr
          -16 callgsubr
          61 callgsubr
          82.99000549316406 hvcurveto
          hintmask 1101111110000000
          -14 callsubr
          -23.990005493164062 0 -20 104 callgsubr
          -18 rrcurveto
          hintmask 1011111110000000
          -279.97999572753906 70 rmoveto
          -58 -40.02000427246094 68 139 1 hvcurveto
          203.02000427246094 2 130 198 161 hhcurveto
          66 51 -19 -28 24.990005493164062 hvcurveto
          -231.02000427246094 -29 -175.99000549316406 -330 -133 hhcurveto
          endchar
        </CharString>
        <CharString name="atilde">
          -88 callsubr
          139 127 callsubr
          -70 callgsubr
          381.99000549316406 198 callgsubr
          131 callsubr
          hintmask 11101010
          468.99000549316406 1432.990005493164 rmoveto
          hintmask 11110010
          -67 callsubr
          19 183 callsubr
          74 callsubr
          -127 61 callgsubr
          rlineto
          -46 -34 -62 -59.99000549316406 -71 hhcurveto
          hintmask 11101010
          215 callsubr
          -7 209 callsubr
          -167 235 callsubr
          172 callsubr
          133 236 callgsubr
          61.99000549316406 56 66.00999450683594 hhcurveto
          161 -273 17 callgsubr
          hintmask 11101110
          -7 callgsubr
          hintmask 11101010
          315 -134 116 -360 vhcurveto
          hintmask 11101110
          -18 -948 rmoveto
          -75 -70 47 107.99000549316406 81.02000427246094 46 28 43 17 hvcurveto
          40 19.009994506835938 88 14.990005493164062 72 1 rrcurveto
          -268 vlineto
          -22 -21.009994506835938 -64 -79 callsubr
          -59 hhcurveto
          endchar
        </CharString>
        <CharString name="b">
          68 callgsubr
          hstem
          -17 callgsubr
          378.99998474121094 233 callsubr
          vstem
          843.9799957275391 1155.990005493164 37 callsubr
          -1596.990005493164 vlineto
          -23.020004272460938 28 266.02000427246094 -61.970001220703125 239 -83 callgsubr
        </CharString>
        <CharString name="backslash">
          -444 -363 1962 hstem
          0 845.9799957275391 vstem
          290.97999572753906 1599 rmoveto
          -290.97999572753906 hlineto
          554.9900054931641 -1962 rlineto
          291 hlineto
          -555.0099945068359 1962 rlineto
          endchar
        </CharString>
        <CharString name="bar">
          66 callgsubr
          -1965.990005493164 113 callsubr
          1965.990005493164 -288.00999450683594 vlineto
          endchar
        </CharString>
        <CharString name="braceleft">
          120 callgsubr
          327.97999572753906 312.99000549316406 vstem
          605 898.9900054931641 rmoveto
          22 28 13.990005493164062 36 46 vvcurveto
          541 247 187 vlineto
          11 -86 -131 13 -109 hhcurveto
          -154 -80 77 callsubr
          -197 hvcurveto
          -468.99000549316406 vlineto
          -85.02000427246094 -158 212 callgsubr
          -100.99000549316406 -10 vhcurveto
          -202.02000427246094 vlineto
          100.99000549316406 -10 158 -54 -82.99000549316406 vvcurveto
          -469.00999450683594 vlineto
          -196.97999572753906 80 -84 154 109 131 11 24 86 vhcurveto
          174 -247 558.9700012207031 vlineto
          47 -12.990005493164062 36 -25 28 vhcurveto
          -44 52 -93 39 -36 callsubr
          27 75 callsubr
          28 97.02000427246094 42 41 53 rrcurveto
          endchar
        </CharString>
        <CharString name="braceright">
          120 callgsubr
          350.97999572753906 312.99000549316406 vstem
          199 callsubr
          1017 rmoveto
          468.99000549316406 vlineto
          197 -80 78.00999450683594 -153.99000549316406 142 callsubr
          -130.99000549316406 -13 -11 -86 vhcurveto
          -187 246.99000549316406 -541 vlineto
          -46 14 -36 22 -28 vhcurveto
          41 -53 -15 callsubr
          -42 79.02000427246094 -28 77 callsubr
          -27 -93 -39 212 callgsubr
          -52 rrcurveto
          -25 -28 -13 -36 -47 vvcurveto
          -558.9700012207031 161 callgsubr
          -174 vlineto
          -24 86 -15 callgsubr
          -11 109.02000427246094 hhcurveto
          175 callgsubr
          80 84 196.97999572753906 hvcurveto
          469.00999450683594 vlineto
          82.99000549316406 158 54 101 10 vhcurveto
          202.02000427246094 vlineto
          -101 10 -158 -62 callsubr
          85.02000427246094 vvcurveto
          endchar
        </CharString>
        <CharString name="bracketleft">
          146 callsubr
          128 320.97999572753906 vstem
          128 1485.990005493164 rmoveto
          -1418 vlineto
          -196.99000549316406 47.97999572753906 -86 154 161 102.00999450683594 14.990005493164062 13 -47 callsubr
          vhcurveto
          174 vlineto
          -251 1 rlineto
          1554.979995727539 251 182 vlineto
          10 40 callsubr
          -101 14.009994506835938 -162 hhcurveto
          -153 -48.99000549316406 -66.00999450683594 -197 hvcurveto
          endchar
        </CharString>
        <CharString name="bracketright">
          146 callsubr
          357.99000549316406 321 vstem
          678.9900054931641 1485.990005493164 rmoveto
          197 -49 66.00999450683594 -152.99000549316406 -162.02000427246094 -100.99000549316406 94 callgsubr
          -10 -20 callgsubr
          vhcurveto
          -182 251 -1554.979995727539 vlineto
          -251 -1 rlineto
          -174 vlineto
          -13 107.00999450683594 180 callsubr
          -36 callgsubr
          161 hhcurveto
          175 callgsubr
          48 86 196.99000549316406 hvcurveto
          1418 vlineto
          endchar
        </CharString>
        <CharString name="breve">
          -481 1285.979995727539 243.00999450683594 hstem
          28 227 vstem
          28 1687.979995727539 rmoveto
          -232 -3 135 -170 254 hhcurveto
          16 callsubr
          endchar
        </CharString>
        <CharString name="breve.cap">
          -481 160 callsubr
          230 hstem
          28 769 vstem
          28 1963.990005493164 rmoveto
          -222 -3 128 -147 261 hhcurveto
          248.02000427246094 136.99000549316406 147 222 -52 callgsubr
          hvcurveto
          -220.02000427246094 hlineto
          -47 178 callsubr
          -19 -92 -137 140 callsubr
          -5 hvcurveto
          60 callsubr
          hlineto
          endchar
        </CharString>
        <CharString name="brokenbar">
          66 callgsubr
          -807.0200042724609 113 callsubr
          807.0200042724609 -288.00999450683594 vlineto
          -1175 vmoveto
          -790.9900054931641 113 callsubr
          790.9900054931641 -288.00999450683594 vlineto
          endchar
        </CharString>
        <CharString name="bullet">
          -395 439.99000549316406 582 hstem
          160.99000549316406 589 vstem
          160.99000549316406 721 rmoveto
          -161.02000427246094 -1 121 -52 callsubr
          165 hhcurveto
          65 callgsubr
          137 141.99000549316406 160 1 hvcurveto
          163 -116 117 -166 -165 175 callsubr
          -140 -161 -1 vhcurveto
          endchar
        </CharString>
        <CharString name="c">
          -44 callgsubr
          199 callsubr
          1155.990005493164 rmoveto
          -94 callgsubr
          38 callgsubr
          endchar
        </CharString>
        <CharString name="cacute">
          -44 callgsubr
          476 1396 rmoveto
          173 103 callsubr
          -28 callsubr
          106 callgsubr
          220 callgsubr
          -243.02000427246094 189 -94.99000549316406 -72 callgsubr
          187.99000549316406 -240 rmoveto
          -94 callgsubr
          38 callgsubr
          endchar
        </CharString>
        <CharString name="caron">
          -476 1248.990005493164 483 hstem
          -59 callgsubr
          832 vstem
          206.99000549316406 1731.990005493164 rmoveto
          103 callgsubr
          305 56 callgsubr
          endchar
        </CharString>
        <CharString name="caron.cap">
          -541 1557.990005493164 405.99000549316406 hstem
          -62 callsubr
          798 vstem
          -62 callsubr
          217 callsubr
          281.99000549316406 -291 rlineto
          234 -24 callgsubr
          endchar
        </CharString>
        <CharString name="caronvertical">
          -856 985.9799957275391 736.9900054931641 hstem
          123.99000549316406 198 callgsubr
          vstem
          -47 callsubr
          1026.990005493164 rmoveto
          157 -41 rlineto
          63 68 133 callsubr
          102 callgsubr
          144 callsubr
          -20 callsubr
          vhcurveto
          -254 -16 callsubr
          -11 -9 callgsubr
          rlineto
          36.99000549316406 1 callgsubr
          8.009994506835938 -35 rcurveline
          endchar
        </CharString>
        <CharString name="ccaron">
          -44 callgsubr
          384 1739.979995727539 rmoveto
          -176 3 callgsubr
          304.99000549316406 117 callsubr
          rlineto
          223 hlineto
          304 369 -177 114 -239 -227 -239.97999572753906 227 rlineto
          279.97999572753906 -583.9900054931641 rmoveto
          -94 callgsubr
          38 callgsubr
          endchar
        </CharString>
        <CharString name="ccedilla">
          -258 35 callgsubr
          1136.979995727539 113 callsubr
          hstem
          84 callgsubr
          84.00999450683594 241.99000549316406 vstem
          994.9799957275391 99.97999572753906 rmoveto
          -44.99000549316406 209 rlineto
          -23 -48.99000549316406 -87 -18 -97.02000427246094 hhcurveto
          -144 -117 82 235 4 hvcurveto
          215 4.0099945068359375 132 68 118 hhcurveto
          110 69 -22 -25 44 hvcurveto
          42 278.02000427246094 rlineto
          38 callgsubr
          -398.99000549316406 -180 -264 -333 -295 141 -229 301 -42.97999572753906 hvcurveto
          11 -77 callsubr
          7 -34 -1 -51.02000427246094 -34 callsubr
          86 -27 53 106 18 95 40 46.97999572753906 -20 callsubr
          rrcurveto
          endchar
        </CharString>
        <CharString name="ccircumflex">
          -44 callgsubr
          240 callgsubr
          1362.979995727539 rmoveto
          176 -32 callsubr
          246 callgsubr
          238.97999572753906 34 callgsubr
          -222.99000549316406 hlineto
          -305.00999450683594 -9 callsubr
          rlineto
          452 -206.99000549316406 rmoveto
          -94 callgsubr
          38 callgsubr
          endchar
        </CharString>
        <CharString name="cdotaccent">
          -258 -95 callsubr
          283.97999572753906 599.9900054931641 113 callsubr
          123.00001525878906 -22 callgsubr
          84 callgsubr
          -53.97999572753906 228 callgsubr
          hintmask 11101000
          406 1471 rmoveto
          -112 87 -80 24 callgsubr
          -111.99000549316406 vhcurveto
          257.97999572753906 -315 rmoveto
          hintmask 11110000
          -94 callgsubr
          hintmask 11101000
          38 callgsubr
          endchar
        </CharString>
        <CharString name="cedilla">
          -777 35 callgsubr
          hstem
          242.99000549316406 241.99000549316406 vstem
          52 -255 rmoveto
          195 callsubr
          27 147 callsubr
          64 callsubr
          -21 117 -46.02000427246094 38.970001220703125 -52 76 callgsubr
          rcurveline
          -161 -4.0200042724609375 20.009994506835938 179 callsubr
          18.990005493164062 161 callsubr
          -52 callgsubr
          -80.02000427246094 rlinecurve
          -99 -1 -51 -51 -65 hhcurveto
          -31 -77 callsubr
          3 11 -17 hvcurveto
          endchar
        </CharString>
        <CharString name="cent">
          -106 -14 181 callgsubr
          600 287 hstemhm
          61 callgsubr
          375 42.5 185.49000549316406 -153.010009765625 185.50999450683594 hintmask 11101000
          1046 99.97999572753906 rmoveto
          -4 callgsubr
          209 rlineto
          -23 -48.99000549316406 -87 -18 -96.99000549316406 hhcurveto
          -144.02000427246094 -117 82 235 76 callgsubr
          hvcurveto
          215 4 131.99000549316406 68 118 hhcurveto
          110 69 -22 -25 44.02000427246094 hvcurveto
          41.99000549316406 278.02000427246094 179 callsubr
          23.979995727539062 -100 26.009994506835938 -129 6 rlinecurve
          5 222 rlineto
          -185 hlineto
          -6 -232 rlineto
          -307 -52 -140 -240 -294.00999450683594 vvcurveto
          -287.99000549316406 134 -224 286 -51.97999572753906 vhcurveto
          hintmask 11110000
          -5 -211 rlineto
          186 hlineto
          4 202 rlineto
          hintmask 11101000
          128 157 callgsubr
          122 46.97999572753906 55 57 rrcurveto
          endchar
        </CharString>
        <CharString name="circumflex">
          -412 1248.990005493164 484 hstem
          -59 callgsubr
          832 vstem
          -59 callgsubr
          1362.979995727539 rmoveto
          176 -32 callsubr
          246 callgsubr
          245 callsubr
          47 callsubr
          71 callsubr
          -222.99000549316406 hlineto
          -305 -9 callsubr
          rlineto
          endchar
        </CharString>
        <CharString name="circumflex.cap">
          -415 1541.979995727539 422.00999450683594 hstem
          -62 callsubr
          803 vstem
          -62 callsubr
          1655.990005493164 rmoveto
          177.99000549316406 3 callsubr
          223 193 224 -193 178 71 callgsubr
          -284 -308 rlineto
          endchar
        </CharString>
        <CharString name="colon">
          -637 194 callgsubr
          298.010009765625 438 hstemhm
          83 callgsubr
          231 callgsubr
          -13 callsubr
          -736.0099945068359 vmoveto
          -61 callsubr
          endchar
        </CharString>
        <CharString name="colonmonetary">
          178 -353.99000549316406 2169 hstemhm
          734.4700012207031 136.50999450683594 -13.509994506835938 137 hintmask 11000000
          630.9900054931641 23 rmoveto
          -354 93 -178.02000427246094 262.97999572753906 379 vvcurveto
          hintmask 10100000
          438 264.00999450683594 48 callgsubr
          367 156 callgsubr
          vhcurveto
          20.009994506835938 299 rlineto
          116.97999572753906 hlineto
          -18.990005493164062 -282.00999450683594 rlineto
          3.0200042724609375 39 37 40 callgsubr
          39 hhcurveto
          22 hlineto
          19 277.00999450683594 rlineto
          117 hlineto
          -19 -285 114.02000427246094 -13 67.99000549316406 -28 59 -13 rlinecurve
          -52 -358.00999450683594 -23 21.020004272460938 -70 47 -118 12.990005493164062 rlinecurve
          -59 -890.9900054931641 121 5 128 47.99000549316406 49 46.02000427246094 rlinecurve
          -343 vlineto
          hintmask 11000000
          -64 -29.029998779296875 -107 -40.97999572753906 -149 -8 -22 -339.99000549316406 rcurveline
          -117 hlineto
          22 339.99000549316406 -47 3 -46 -48 callgsubr
          -43 7 rlinecurve
          -23 -353 rlineto
          -117 hlineto
          25 114 callgsubr
          rlineto
          194 1157 rmoveto
          -55 -830.0200042724609 39 -17 44 -12 51 178 callsubr
          rlinecurve
          59 889 -49 -3.0200042724609375 -46 -7 -42.99000549316406 -12.990005493164062 rlinecurve
          -121 -54 rmoveto
          -20 callgsubr
          -69 -63 3 callsubr
          130 callsubr
          vvcurveto
          -156 38.99000549316406 129 callsubr
          84.00999450683594 -82.99000549316406 vhcurveto
          47 702 rlineto
          endchar
        </CharString>
        <CharString name="comma">
          -606 -512 829.9900054931641 hstem
          254.99000549316406 326 vstem
          174 -381.99000549316406 rmoveto
          -79 callsubr
          vlineto
          132 -104 rlineto
          152 58 123 242 callsubr
          -53 169 3 callsubr
          43 vhcurveto
          -262.97999572753906 119 callsubr
          -42 -100.99000549316406 -39 -29 vhcurveto
          endchar
        </CharString>
        <CharString name="copyright">
          785 -35 callsubr
          129 258 76 callsubr
          566.0099945068359 216 callsubr
          257.00999450683594 126.00999450683594 hstem
          174.97999572753906 142 282.010009765625 145 callgsubr
          923.0200042724609 142.99000549316406 186 callsubr
          -384 -389.02000427246094 -485.99000549316406 -487 384 188 callsubr
          385 392.00999450683594 487 485.99000549316406 -385 389.02000427246094 -485.99000549316406 hvcurveto
          -1625 vmoveto
          -419 -309 336 414 413 309 336 419 419 309 -336 -413 -414 -309 -336 -419 hvcurveto
          -20 callsubr
          1241.990005493164 rmoveto
          -325 199 callgsubr
          -216.99000549316406 -284 2 hvcurveto
          -259.00999450683594 104 callgsubr
          176 60 callsubr
          274 hhcurveto
          133 124 50 53 60.99000549316406 hvcurveto
          212 callgsubr
          173 rlineto
          -28 -39 -60 callsubr
          -35 40 callsubr
          hhcurveto
          -145 -106 87 221 40 callgsubr
          hvcurveto
          155 1 102.02000427246094 103.02000427246094 145 hhcurveto
          81 93 callsubr
          -25 -30 42 hvcurveto
          37 205 rlineto
          23 -41 -100 144 callgsubr
          -113 hhcurveto
          endchar
        </CharString>
        <CharString name="currency">
          259 182 callgsubr
          253.99000549316406 412.99998474121094 256 hstem
          324.99000549316406 253.99000549316406 404.99998474121094 255.00999450683594 vstem
          1239 773 rmoveto
          47 callgsubr
          -28.020004272460938 133 callsubr
          -47 73 vhcurveto
          207 207.99000549316406 -150 161.02000427246094 -217 -219 rlineto
          37 -66.00999450683594 114 callsubr
          174 callsubr
          -80.02000427246094 hhcurveto
          -27 callgsubr
          -75 213 callsubr
          -36 -65 hvcurveto
          -199 205.99000549316406 174 callgsubr
          130 callsubr
          186.99000549316406 -193 rlineto
          -47.99000549316406 -74 -29 -88 -97 vvcurveto
          -97.02000427246094 29 -16 callsubr
          -20 callsubr
          -74.02000427246094 vhcurveto
          -189.99000549316406 -193.99000549316406 150 -157 200 204.99000549316406 rlineto
          -35 65 75 213 callsubr
          -69 callsubr
          hhcurveto
          79.02000427246094 75 214 callgsubr
          36 65 hvcurveto
          203 -208 147.99000549316406 158 -189.99000549316406 196 rlineto
          49 177 callgsubr
          29 88.99000549316406 97.02000427246094 vvcurveto
          -456 -207 rmoveto
          -115 -89 95 112 54 callsubr
          89 94 115 116 -70 callgsubr
          62 callgsubr
          -111 -84.99000549316406 112 callsubr
          -116 hvcurveto
          endchar
        </CharString>
        <CharString name="d">
          166 callsubr
          hstem
          -70 callgsubr
          96 callgsubr
          377.99998474121094 -10 callsubr
          vstem
          850.9799957275391 94 callsubr
          rmoveto
          -412 vlineto
          -91 callgsubr
          1677.979995727539 -9 callsubr
          hlineto
          -378 -1113 -92 callsubr
        </CharString>
        <CharString name="dagger">
          -272 1040.990005493164 246.49000549316406 hstemhm
          370.47999572753906 292.52000427246094 -284.50999450683594 277.5 hintmask 10100000
          -39 callsubr
          1041 rmoveto
          17 -841.0099945068359 rlineto
          262 hlineto
          14 841.0099945068359 rlineto
          279 246.99000549316406 hlineto
          hintmask 11000000
          -279 -1 rlineto
          371.02000427246094 -292 vlineto
          -1 -371.02000427246094 -277 1 -1 161 callgsubr
          rlineto
          hintmask 10100000
          278 hlineto
          endchar
        </CharString>
        <CharString name="daggerdbl">
          -267 391.97999572753906 247.52000427246094 401.49000549316406 246.99000549316406 hstemhm
          -39 callsubr
          292 -283.010009765625 272.50999450683594 hintmask 11010000
          -39 callsubr
          391.99000549316406 rmoveto
          18 -747.9900054931641 rlineto
          112 callgsubr
          hlineto
          21.020004272460938 747.9900054931641 rlineto
          284 247 hlineto
          hintmask 11100000
          -284 1 rlineto
          401 285 246.99000549316406 -285 vlineto
          40 callgsubr
          -10 callsubr
          rlineto
          -292.97999572753906 hlineto
          -1 117 callsubr
          rlineto
          -277 hlineto
          -1 161 callgsubr
          rlineto
          278 -401 hlineto
          -278 -1 rlineto
          -247 vlineto
          hintmask 11010000
          278 hlineto
          endchar
        </CharString>
        <CharString name="dcaron">
          401 5 callsubr
          hstem
          -70 callgsubr
          96 callgsubr
          377.99998474121094 -10 callsubr
          235.99000549316406 237 callsubr
          vstem
          1660.990005493164 1722.979995727539 rmoveto
          -253.99000549316406 -16 callsubr
          -11 -9 callgsubr
          rlineto
          36.99000549316406 1 callgsubr
          8 -35 rcurveline
          124 callgsubr
          -810 -472.99000549316406 rmoveto
          -91 callgsubr
          1677.979995727539 -9 callsubr
          -412 hlineto
          -378 -701.0099945068359 -92 callsubr
        </CharString>
        <CharString name="dcroat">
          166 callsubr
          135.989990234375 200 hstem
          -70 callgsubr
          96 callgsubr
          377.99998474121094 -10 callsubr
          vstem
          1349 1491.990005493164 rmoveto
          -128 170 -9 callsubr
          -170 -216.99000549316406 -200 216.99000549316406 180 callgsubr
          hlineto
          -91 callgsubr
          1307.9700012207031 128 200 hlineto
          -876.0099945068359 -943 -92 callsubr
        </CharString>
        <CharString name="degree">
          -329 907.9799957275391 199 341.010009765625 198.97999572753906 hstem
          111.97999572753906 212 329 212 vstem
          488 1646.979995727539 rmoveto
          -216 -160 -158.99000549316406 -210 -207 164 -163 212 221 156 159 211 206.99000549316406 -160 162 -216.99000549316406 hvcurveto
          -540 vmoveto
          -87 -77 69 102.00999450683594 104 86 callgsubr
          66 91.02000427246094 88 76.97999572753906 -68.02000427246094 177 callsubr
          -103 -73.99000549316406 -68.02000427246094 -91 hvcurveto
          endchar
        </CharString>
        <CharString name="dieresis">
          -272 227 callgsubr
          61.99000549316406 392.99000549316406 hintmask 00000000
          hintmask 11000000
          61.99000549316406 1471 rmoveto
          68 callsubr
          244 callsubr
          94 211 callgsubr
          3 callgsubr
          -93 -93 -111 vhcurveto
          518 hmoveto
          68 callsubr
          176 callsubr
          87.99000549316406 190 callsubr
          -114 -92 -93 -111 vhcurveto
          endchar
        </CharString>
        <CharString name="dieresis.cap">
          -268 1581.990005493164 -3 callgsubr
          hstemhm
          107 callsubr
          192 callgsubr
          231 callgsubr
          107 callsubr
          1765.990005493164 rmoveto
          -109 77 -75 -14 callgsubr
          116 88.99000549316406 -53 callsubr
          -71.99000549316406 -1 callgsubr
          3 callsubr
          218 callgsubr
          -14 callgsubr
          116 88.99000549316406 -53 callsubr
          -70.99000549316406 -1 callgsubr
          -115.02000427246094 232 callsubr
          endchar
        </CharString>
        <CharString name="divide">
          111 -15 callsubr
          431 111 268.97999572753906 -13 callgsubr
          431.97999572753906 hstemhm
          516.9900054931641 228 callgsubr
          hintmask 11110000
          518.9799957275391 1236.990005493164 rmoveto
          -119.00999450683594 83 -16 callsubr
          123 125.99000549316406 95.00999450683594 105 120 1 vhcurveto
          119 -77 87.99000549316406 -126 -28 callgsubr
          -98 -105 203 callgsubr
          -1 vhcurveto
          -328.99000549316406 -329.00999450683594 rmoveto
          -268.97999572753906 1036 268.97999572753906 -1036 vlineto
          327 -603 rmoveto
          203 callgsubr
          82.99000549316406 -89 122 127.02000427246094 47 callgsubr
          105 -67 callsubr
          vhcurveto
          -35 callgsubr
          1 77 callsubr
          88 -124.99000549316406 hhcurveto
          -126 -99 -104 -119.00999450683594 hvcurveto
          endchar
        </CharString>
        <CharString name="dollar">
          103 -224.99000549316406 501.97999572753906 985.0000152587891 274 hstemhm
          216 callsubr
          2 callsubr
          178 callgsubr
          205 -142.489990234375 204 43.5 380.97999572753906 hintmask 00000000
          hintmask 11101100
          1251.979995727539 435 rmoveto
          239 -156 116 -262 117.99000549316406 vhcurveto
          -184 84 -60 callsubr
          50 92.02000427246094 vvcurveto
          76.99000549316406 66 51.02000427246094 144 133 143 -49 -48 60.99000549316406 vhcurveto
          59 286 rlineto
          hintmask 11001000
          -48.99000549316406 28 129 callsubr
          47 -185 157 callgsubr
          9.020004272460938 226.97999572753906 rcurveline
          -204 hlineto
          -9.009994506835938 -232.97999572753906 rlineto
          hintmask 11101100
          -251 -34.02000427246094 -163 115 callsubr
          -238 vvcurveto
          -245 163 -135 194 -92 vhcurveto
          227 -108 82 -38 -96.99000549316406 vvcurveto
          -38 callgsubr
          -62 -39 -144 vhcurveto
          130 callsubr
          -1 -168 56 -74.02000427246094 42 -47 -296 rcurveline
          hintmask 11010000
          47 -29 138.02000427246094 -42 163.99000549316406 -15.970001220703125 59 callsubr
          -216 rcurveline
          205 hlineto
          -19 callgsubr
          240 callgsubr
          rlineto
          hintmask 11101100
          312.00999450683594 21.990005493164062 169.99000549316406 171.99000549316406 254.02000427246094 vvcurveto
          endchar
        </CharString>
        <CharString name="dong">
          85 196.99000549316406 93.97999572753906 957.0099945068359 105 hstem
          514.9900054931641 305.99000549316406 vstem
          820.9799957275391 1352.990005493164 rmoveto
          -325 168 325 173 -10 callsubr
          -173 167 -168 -167 -1062.020004272461 -311.00999450683594 hlineto
          -23 0 32.02000427246094 8 hvcurveto
          70 vlineto
          -41 -44 -75 179 callgsubr
          -181 hhcurveto
          -221 -187 142 303 213 callgsubr
          204 189 319 156 callgsubr
          47.99000549316406 -7 59 callsubr
          32 hvcurveto
          -3 120 rlineto
          -305.99000549316406 -611 rmoveto
          -141 61 -60.99000549316406 82.97999572753906 80 55 28 17 27 vhcurveto
          398.99000549316406 vlineto
          12 -36 callgsubr
          -37 17 -81 hhcurveto
          -123 -49.99000549316406 -99.99000549316406 -171 hvcurveto
          734 -741.9900054931641 rmoveto
          -1105 197 1105 -197 hlineto
          endchar
        </CharString>
        <CharString name="dotaccent">
          -773 1278.990005493164 -32 callgsubr
          hstem
          107 callsubr
          427 vstem
          107 callsubr
          1471 rmoveto
          -29 callsubr
          -66 callsubr
          -52 callsubr
          61 callsubr
          155 callgsubr
          endchar
        </CharString>
        <CharString name="dotaccent.cap">
          -773 1595.979995727539 367 hstem
          95 callsubr
          107 callgsubr
          vstem
          95 callsubr
          168 callgsubr
          74 170 callgsubr
          66 callsubr
          endchar
        </CharString>
        <CharString name="dotlessi">
          0 1139.990005493164 hstem
          -8 callgsubr
          -72 callsubr
          vstem
          -8 callgsubr
          1140 -76 callgsubr
          endchar
        </CharString>
        <CharString name="e">
          -83 callsubr
          -30 callgsubr
          1135.979995727539 692.9799957275391 -107 callsubr
        </CharString>
        <CharString name="eacute">
          -83 callsubr
          -30 callgsubr
          1082.979995727539 0 callsubr
          29 callsubr
          69 callsubr
          53 -943 -107 callsubr
        </CharString>
        <CharString name="ebreve">
          -83 callsubr
          129.989990234375 243.00999450683594 -30 callgsubr
          653.9900054931641 1285.979995727539 rmoveto
          241 145 170 232 -2 hvcurveto
          60 callsubr
          hlineto
          -47.99000549316406 -8 94 callgsubr
          -111 -138 hhcurveto
          -142.99000549316406 -11 111 47.99000549316406 -5.0200042724609375 hvcurveto
          -227 hlineto
          -232 -75 callsubr
          135 -170 254 hhcurveto
          482 -593 -107 callsubr
        </CharString>
        <CharString name="ecaron">
          -83 callsubr
          -30 callgsubr
          761 -6 callgsubr
          305 117 callsubr
          rlineto
          223 hlineto
          374.99000549316406 -564 -107 callsubr
        </CharString>
        <CharString name="ecircumflex">
          -83 callsubr
          -30 callgsubr
          7 callsubr
          482 -783.0099945068359 -107 callsubr
        </CharString>
        <CharString name="edieresis">
          -83 callsubr
          124.989990234375 394.00999450683594 167 callgsubr
          -261 173 callgsubr
          391.97999572753906 -313.99000549316406 105 callgsubr
          hintmask 00000000
          hintmask 11110110
          385.99000549316406 165 callsubr
          3 callgsubr
          -93 -93 -111 68 callsubr
          hvcurveto
          518 hmoveto
          115 88 190 callsubr
          -114 -92 -93 -111 68 callsubr
          hvcurveto
          hintmask 11111001
          232 -588 -107 callsubr
        </CharString>
        <CharString name="edotaccent">
          -83 callsubr
          123 397.97999572753906 167 callgsubr
          -26.010009765625 427 -66 105 callgsubr
          hintmask 00000000
          hintmask 11110100
          637.9900054931641 1279 rmoveto
          -66 callsubr
          -120 61 callsubr
          62 callgsubr
          -29 callsubr
          hvcurveto
          hintmask 11111010
          497.99000549316406 -586.0200042724609 -107 callsubr
        </CharString>
        <CharString name="egrave">
          -83 callsubr
          -30 callgsubr
          616 173 callsubr
          -104.02000427246094 94 -155 212 48 callsubr
          139 rlinecurve
          -244.02000427246094 -189 70 -156 256 -212.99000549316406 92.02000427246094 -4 callgsubr
          rlinecurve
          519.9900054931641 -529 -107 callsubr
        </CharString>
        <CharString name="eight">
          96 -95 callsubr
          242.97000122070312 1113 225 hstemhm
          117.99000549316406 131 callgsubr
          -299.99000549316406 105 callgsubr
          391.00999450683594 324.99000549316406 -305.99000549316406 373.97999572753906 hintmask 00000000
          hintmask 11100100
          1292.979995727539 424.97999572753906 rmoveto
          -52 callgsubr
          194 -150.02000427246094 -14 callgsubr
          -169 92 rrcurveto
          hintmask 11011000
          180.02000427246094 86 86 callgsubr
          237 callgsubr
          142 vvcurveto
          209 -183 154 -343 -344 -188.99000549316406 -180.02000427246094 -221.99000549316406 -188 100 -117 127 -87 vhcurveto
          hintmask 11101000
          -200 -95.00999450683594 -75 115 callsubr
          -142 vvcurveto
          -251.99000549316406 225 -160.99000549316406 372.99000549316406 vhcurveto
          hintmask 11100100
          332 248 161.97000122070312 279 -3 hvcurveto
          hintmask 11011000
          -588.9799957275391 915 rmoveto
          156 callsubr
          71 -64 -89.00999450683594 hvcurveto
          -48 callgsubr
          -104 212 callgsubr
          -92 -20 callgsubr
          -52 rrcurveto
          -135.99000549316406 71 -20 callgsubr
          86 callgsubr
          111 vvcurveto
          77 75 69 116 callsubr
          vhcurveto
          hintmask 11100100
          -19 callgsubr
          -1113.009994506836 rmoveto
          -175 -71 133 callsubr
          100.99000549316406 112 62 69 91 52 hvcurveto
          160 114 callsubr
          140 -64 -119 vvcurveto
          -99 -94 -61 -23 callsubr
          vhcurveto
          endchar
        </CharString>
        <CharString name="ellipsis">
          688 194 callgsubr
          hstemhm
          83 callgsubr
          235.00999450683594 427 231 callgsubr
          39 callsubr
          -47 callgsubr
          rmoveto
          -61 callsubr
          663 hmoveto
          -52 callsubr
          1 82.99000549316406 55 callgsubr
          123 hhcurveto
          126.02000427246094 47 callgsubr
          -47 callsubr
          121 -14 callsubr
          hvcurveto
          120 -78 90 -125.00999450683594 -126 -98 -107 -120 vhcurveto
          663 hmoveto
          -52 callsubr
          84 55 callgsubr
          122 126 77 callgsubr
          -47 callsubr
          121 -14 callsubr
          vhcurveto
          120 -78 90 -125.00999450683594 -127 -98 -107 -120 1 vhcurveto
          endchar
        </CharString>
        <CharString name="emacron">
          -83 callsubr
          247.989990234375 -4 callsubr
          167 callgsubr
          -114.010009765625 619 -170 105 callgsubr
          hintmask 00000000
          hintmask 11110100
          962.9900054931641 1641.979995727539 rmoveto
          -619.0099945068359 -238 619.0099945068359 238 hlineto
          hintmask 11111010
          -81 callgsubr
          -949 -107 callsubr
        </CharString>
        <CharString name="emdash">
          1116 101 callgsubr
          48 callgsubr
          1926 vstem
          48 callgsubr
          903.9900054931641 rmoveto
          -278 1926 278 -1926 vlineto
          endchar
        </CharString>
        <CharString name="endash">
          402 101 callgsubr
          48 callgsubr
          1212 vstem
          48 callgsubr
          903.9900054931641 rmoveto
          -278 1212 278 -1212 vlineto
          endchar
        </CharString>
        <CharString name="eng">
          76 -507 235 1136.990005493164 292.97999572753906 hstem
          -21 callsubr
          375 319 375 vstem
          -21 callsubr
          1139 rmoveto
          -1139 375.00999450683594 785.9799957275391 vlineto
          55 55 87 23 46 1 rrcurveto
          100.99000549316406 40 callgsubr
          30 -51 -165.99000549316406 vvcurveto
          -676.9799957275391 vlineto
          -209 -35 -36 -16 callsubr
          -34.02000427246094 -55.99000549316406 -19 callgsubr
          8 -21 vhcurveto
          -230.99000549316406 vlineto
          -12 -20 callsubr
          74 -8 105 hhcurveto
          234 148 159 330 hvcurveto
          735.9900054931641 vlineto
          -1 334.00999450683594 -120 111 -238.02000427246094 -5.0200042724609375 175 callsubr
          -75 callsubr
          -145 77 callsubr
          -72 -58.99000549316406 -9 121 rcurveline
          -343.02000427246094 hlineto
          endchar
        </CharString>
        <CharString name="eogonek">
          -85 19 callsubr
          283.00999450683594 261.97999572753906 236.99000549316406 185.00999450683594 249.00001525878906 239 167 callgsubr
          92 297 -54.010009765625 105 callgsubr
          hintmask 11111010
          1135.979995727539 692.9799957275391 rmoveto
          366 -75 callsubr
          -233 97.02000427246094 -243 hhcurveto
          -363 -209 -249 -332 -9 callsubr
          200 -220.97000122070312 367.99000549316406 hvcurveto
          hintmask 11111100
          159 callgsubr
          24 1 40 callgsubr
          24 hvcurveto
          -98 -63 -83 177 callsubr
          5 -28 callgsubr
          rrcurveto
          -130.99000549316406 -48 callgsubr
          132 -81 146 hhcurveto
          104 86 24 -28 callsubr
          68 236 callsubr
          -37.99000549316406 -37 -8 -34 hhcurveto
          -72 -58 239 callgsubr
          65 -75 callsubr
          hvcurveto
          -2 99.99000549316406 71 79.00999450683594 91 79.99000549316406 215 callgsubr
          17 33 18.990005493164062 23 19 -57 197 rcurveline
          -30 -55 -141 -28 -110 hhcurveto
          -165.99000549316406 -102.00999450683594 67.00999450683594 169.97999572753906 -17 hvcurveto
          hintmask 11111010
          669 hlineto
          7 49 5 78.00999450683594 82.99000549316406 vvcurveto
          -343 -24.990005493164062 rmoveto
          -335 39 callgsubr
          -45 callgsubr
          60 105 hhcurveto
          113 40 -83 -165.99000549316406 -9.009994506835938 hvcurveto
          endchar
        </CharString>
        <CharString name="equal">
          80 callsubr
          112 callgsubr
          1154.990005493164 rmoveto
          -251 924 251 -924 vlineto
          -508.00999450683594 vmoveto
          -251.99000549316406 924 201 callgsubr
          -924 vlineto
          endchar
        </CharString>
        <CharString name="estimated">
          75 -95 callsubr
          -21 callsubr
          464.99000549316406 156.00999450683594 424.99000549316406 163 hstem
          107.99000549316406 341.99000549316406 498.99998474121094 324.00999450683594 vstem
          1262 611.9799957275391 rmoveto
          11 51.02000427246094 0 82.99000549316406 133 callsubr
          vvcurveto
          -11 328.99000549316406 -232.02000427246094 200 -295 -5.0200042724609375 rrcurveto
          -426 178 callsubr
          -200.99000549316406 -286 -392 vvcurveto
          -430 229 -256.97999572753906 397.99000549316406 194 182.99000549316406 69.97999572753906 61 217 callgsubr
          vhcurveto
          -70 151 rlineto
          -55 -73.00999450683594 -140 -64 -164.99000549316406 hhcurveto
          -118 -104 26.009994506835938 69 -77 hvcurveto
          -39 callsubr
          812.0099945068359 vlineto
          -313.02000427246094 523 rmoveto
          -366.97999572753906 -499 327.99000549316406 vlineto
          68 71 93 29 107 hhcurveto
          104 86 callgsubr
          -22 -36 51 hvcurveto
          endchar
        </CharString>
        <CharString name="eth">
          15 95 callgsubr
          256.97999572753906 681.0000152587891 -4 callsubr
          hstem
          -35 callsubr
          390 400.989990234375 379 vstem
          735.9900054931641 1606.979995727539 rmoveto
          57 71 63 84.00999450683594 0 vvcurveto
          -167 115 rlineto
          0 -69 -98 -57 -77 vhcurveto
          -38 callgsubr
          49 -76 23.990005493164062 -52 callsubr
          34.02000427246094 -60 -192 rcurveline
          177 callgsubr
          -22.020004272460938 70.99000549316406 -35.99000549316406 62 113 callgsubr
          -125.00999450683594 130 callsubr
          rcurveline
          164 3 callsubr
          120 161.02000427246094 196 callsubr
          -81 -35 callsubr
          -102.00999450683594 44 -120 rlinecurve
          25.990005493164062 -49 -65 19 -83 hhcurveto
          -341 -192 -257 -342 -342 225 -234.97999572753906 354.02000427246094 315.97999572753906 275.00999450683594 216 callsubr
          487 373 -199 369.00999450683594 -319 199.99000549316406 hvcurveto
          -69 -1376.990005493164 rmoveto
          -112 -81 93 76 callsubr
          248 79 127 125.00999450683594 88 75 -44.02000427246094 -46 30 hvcurveto
          4 -51 0 -122 -56 vvcurveto
          -252 -98 -110 -110 vhcurveto
          endchar
        </CharString>
        <CharString name="exclam">
          -637 194 callgsubr
          -437.97999572753906 1801.990005493164 hstemhm
          159.49000549316406 360.47999572753906 hintmask 01100000
          133 1780 rmoveto
          59 callgsubr
          hintmask 10100000
          -13 226 callsubr
          1 82.99000549316406 55 callgsubr
          122 hhcurveto
          127.02000427246094 47 callgsubr
          -47 callsubr
          121 120 -36 callsubr
          90 -28 callgsubr
          -126 -99 -107 -120 1 hvcurveto
          endchar
        </CharString>
        <CharString name="exclamdbl">
          8 194 callgsubr
          hstem
          155.47999572753906 360.47999572753906 293.53001403808594 360.47999572753906 vstem
          128.97999572753906 1780 rmoveto
          59 callgsubr
          654.0099945068359 hmoveto
          59 callgsubr
          -667 226 callsubr
          104 callgsubr
          138 callsubr
          -78 90 -126 130 callgsubr
          -99 -107 -120 1 hvcurveto
          653.9900054931641 hmoveto
          -52 callsubr
          1 138 callsubr
          77 callsubr
          90 130 callgsubr
          -28 callgsubr
          -99 -107 -120 1 hvcurveto
          endchar
        </CharString>
        <CharString name="exclamdown">
          -637 -435.99000549316406 1801.990005493164 -438.02000427246094 438 hstemhm
          85 callsubr
          428.00999450683594 -400.02000427246094 360.50999450683594 hintmask 00000000
          hintmask 01100000
          541 1154.990005493164 rmoveto
          39 callsubr
          -1 -83 91.02000427246094 -122 hhcurveto
          -127 -95 -20 callgsubr
          -121 -120 78.00999450683594 -38 callgsubr
          125.99000549316406 126 99 107.00999450683594 120 -14 callsubr
          hvcurveto
          hintmask 10010000
          -13 -1590.990005493164 rmoveto
          -53 1189.990005493164 rlineto
          -314 hlineto
          -40 -1189.990005493164 rlineto
          407 hlineto
          endchar
        </CharString>
        <CharString name="f">
          -425 18 callgsubr
          -55 callgsubr
          endchar
        </CharString>
        <CharString name="f_f">
          456 18 callgsubr
          509.02000427246094 -72 callsubr
          vstem
          -96 callgsubr
          endchar
        </CharString>
        <CharString name="f_f_i">
          1146 -25 callsubr
          84 callsubr
          509.02000427246094 -72 callsubr
          410.00999450683594 109 callgsubr
          -390.99000549316406 -72 callsubr
          hintmask 10111010
          -96 callgsubr
          hintmask 11011100
          782 573.0099945068359 rmoveto
          72 callgsubr
          121 100 95 54 callsubr
          -58 callsubr
          -120 -103 -2 callsubr
          vhcurveto
          hintmask 10111010
          35.99000549316406 -330 -76 callgsubr
          endchar
        </CharString>
        <CharString name="f_f_l">
          1153 18 callgsubr
          509.02000427246094 -72 callsubr
          450.00999450683594 370.99000549316406 vstem
          -96 callgsubr
          822 765.0099945068359 rmoveto
          -1661.990005493164 371 94 callsubr
          -371 vlineto
          endchar
        </CharString>
        <CharString name="ffi_dflt">
          1146 -25 callsubr
          143 callgsubr
          427 -390.989990234375 -72 callsubr
          381.00999450683594 -72 callsubr
          508.99998474121094 -72 callsubr
          hintmask 10101110
          -57 callgsubr
          880.9900054931641 hmoveto
          -102 callgsubr
          hintmask 11010110
          -1670 573.0099945068359 -90 callgsubr
          hintmask 10101110
          36 -330 -76 callgsubr
          endchar
        </CharString>
        <CharString name="fi">
          265 -25 callsubr
          84 callsubr
          410.02000427246094 427 -391 -72 callsubr
          hintmask 10110100
          96 callsubr
          896.9799957275391 rmoveto
          -102 callgsubr
          hintmask 11011000
          782.0099945068359 573.0099945068359 rmoveto
          -112 87 -80 119 121 100 95 54 callsubr
          -58 callsubr
          129 callsubr
          201 callsubr
          -2 callsubr
          vhcurveto
          hintmask 10110100
          36 -330 -76 callgsubr
          endchar
        </CharString>
        <CharString name="fi_trk">
          265 -25 callsubr
          143 callgsubr
          427 -390.989990234375 -72 callsubr
          381.00999450683594 -72 callsubr
          hintmask 10101100
          -57 callgsubr
          hintmask 11010100
          -789.0099945068359 573.0099945068359 -90 callgsubr
          hintmask 10101100
          36 -330 -76 callgsubr
          endchar
        </CharString>
        <CharString name="five">
          14 -364.99000549316406 -56 callsubr
          518.9799957275391 264 267 300.99000549316406 hstem
          798.9799957275391 380 vstem
          171.99000549316406 -351 rmoveto
          -10 43 70.99000549316406 46 callsubr
          35 hhcurveto
          528.0200042724609 330 197 callgsubr
          362 275.97999572753906 -156 165 -289.02000427246094 -27 callgsubr
          -87 94 callgsubr
          -77 callsubr
          158 callgsubr
          hvcurveto
          31.009994506835938 307 rlineto
          587 hlineto
          32 301 rlineto
          -885 hlineto
          -63 -862.9900054931641 95 callsubr
          -34.02000427246094 rlineto
          32.02000427246094 64 callsubr
          111 197 callsubr
          93 callsubr
          hhcurveto
          180 -1 76 -64 130 callgsubr
          vvcurveto
          -190 -197 -137.99000549316406 -348 -27.020004272460938 -77 callsubr
          1 1 -28 vhcurveto
          -1 -254.02000427246094 rlineto
          endchar
        </CharString>
        <CharString name="fl">
          272 18 callgsubr
          450.00999450683594 370.99000549316406 -55 callgsubr
          822 765.0099945068359 rmoveto
          -1661.990005493164 371 94 callsubr
          -371 vlineto
          endchar
        </CharString>
        <CharString name="florin">
          -110 892.9799957275391 247 282 262 hstem
          202.99000549316406 919.9799957275391 vstem
          360 892.9900054931641 rmoveto
          -110 -1248.990005493164 rlineto
          374.99000549316406 hlineto
          111 1248.990005493164 rlineto
          260 hlineto
          20.009994506835938 247 rlineto
          -260 hlineto
          6.9900054931640625 62 rlineto
          147 15.009994506835938 69 86 callgsubr
          180 callsubr
          hhcurveto
          76 53 -11 -16 23 hvcurveto
          22 -56 callsubr
          rlineto
          9 -23.979995727539062 -91.02000427246094 14 55 callgsubr
          hhcurveto
          -239 -257 -103 -344 -31 hvcurveto
          -9 -97 130 callsubr
          -33.02000427246094 -18 -214 rlineto
          157 hlineto
          endchar
        </CharString>
        <CharString name="four">
          146 0 261.97999572753906 hstem
          820.9799957275391 356 vstem
          1398.990005493164 261.97999572753906 rmoveto
          -222 372.02000427246094 -318 hlineto
          -38 -372.02000427246094 rlineto
          -338 hlineto
          99 169 419 774 -290 137 rlineto
          114 callsubr
          hlineto
          -554 -1210 86 -131.99000549316406 rlineto
          654.9900054931641 -375.99000549316406 356 232 callgsubr
          222 261.97999572753906 hlineto
          endchar
        </CharString>
        <CharString name="four.numr">
          -101 852.9900054931641 214.99000549316406 hstem
          692.4900054931641 299.49000549316406 vstem
          1143.990005493164 1067.990005493164 rmoveto
          -152 272 -270 hlineto
          -27 -272 rlineto
          -266 hlineto
          -28 callsubr
          75 379 610 -240 103.02000427246094 rlineto
          -69 hlineto
          -472.99000549316406 -909 53 -94 rlineto
          570.9900054931641 hlineto
          -14 callsubr
          -265.00999450683594 rlineto
          -23 callgsubr
          265.00999450683594 152 215 hlineto
          endchar
        </CharString>
        <CharString name="fraction">
          -272 0 1529.990005493164 hstem
          -16 callgsubr
          805 vstem
          -16 callgsubr
          hmoveto
          263 hlineto
          542 1530 rlineto
          238 callsubr
          hlineto
          -538.9900054931641 -1530 rlineto
          endchar
        </CharString>
        <CharString name="franc">
          -40 437.97999572753906 158 266 391 hstem
          46 callgsubr
          1108.990005493164 vstem
          224.99000549316406 216.99000549316406 rmoveto
          -170 221 170 1084 938.9900054931641 -269 -578.9900054931641 -391 450 -266 -450 -158 270 -221 -270 -216.99000549316406 -360 216.99000549316406 hlineto
          endchar
        </CharString>
        <CharString name="g">
          -93 callsubr
          -44 callsubr
          348.99000549316406 52 callgsubr
          hintmask 1111001010000000
          1338 1140 -103 callgsubr
        </CharString>
        <CharString name="gbreve">
          -93 callsubr
          130.99998474121094 243.00999450683594 -44 callsubr
          -192.00999450683594 227 314 52 callgsubr
          hintmask 1111010010100000
          652.9799957275391 1285.979995727539 rmoveto
          16 callsubr
          -232 -3 135 -170 253.99000549316406 hhcurveto
          685.0200042724609 -145.99000549316406 -60 callgsubr
          hintmask 1110110100100000
          -90 callsubr
          hintmask 1110111000100000
          -106 callsubr
          hintmask 1111010101000000
          -74 callsubr
          hintmask 1111010010100000
          106 callgsubr
          vlineto
          hintmask 1110110101000000
          -93 callgsubr
          hintmask 1110111000100000
          -91 callsubr
          hintmask 1110110101000000
          241.99000549316406 hlineto
          endchar
        </CharString>
        <CharString name="gcaron">
          -93 callsubr
          -44 callsubr
          348.99000549316406 -11 callgsubr
          hintmask 1110101010000000
          761 -6 callgsubr
          305 117 callsubr
          rlineto
          223 hlineto
          hintmask 1111001010000000
          577 -116.99000549316406 -103 callgsubr
        </CharString>
        <CharString name="gcircumflex">
          -93 callsubr
          -44 callsubr
          348.99000549316406 -11 callgsubr
          hintmask 1110101010000000
          7 callsubr
          hintmask 1111001010000000
          684.0099945068359 -336 -103 callgsubr
        </CharString>
        <CharString name="gcommaaccent">
          -93 callsubr
          -44 callsubr
          -17.009994506835938 292.97999572753906 73.02000427246094 52 callgsubr
          hintmask 1111000101000000
          666.9900054931641 1269.990005493164 rmoveto
          157 133 rlineto
          77 vlineto
          -54 10 -35 83 71 vvcurveto
          89 17 -59 callgsubr
          22 34 vhcurveto
          21.009994506835938 vlineto
          -144 51 rlineto
          -75 -24 3 callgsubr
          -123 199 callgsubr
          vvcurveto
          -176 -67 callsubr
          -97 106 -8 vhcurveto
          671 -129.99000549316406 -60 callgsubr
          hintmask 1110101001000000
          -90 callsubr
          hintmask 1110110001000000
          -106 callsubr
          hintmask 1111001010000000
          -74 callsubr
          hintmask 1111000101000000
          106 callgsubr
          vlineto
          hintmask 1110101010000000
          -93 callgsubr
          hintmask 1110110001000000
          -91 callsubr
          hintmask 1110101010000000
          241.99000549316406 hlineto
          endchar
        </CharString>
        <CharString name="gdotaccent">
          -93 callsubr
          124.00999450683594 397.97999572753906 -44 callsubr
          -28.020004272460938 427 -49.989990234375 52 callgsubr
          hintmask 1111010010100000
          636.9900054931641 1279 rmoveto
          -66 callsubr
          -52 callsubr
          61 callsubr
          62 callgsubr
          -112 87 -80 119 hvcurveto
          701.0099945068359 -139 -60 callgsubr
          hintmask 1110100100100000
          -90 callsubr
          hintmask 1110101000100000
          -106 callsubr
          hintmask 1111000101000000
          -74 callsubr
          hintmask 1111010010100000
          106 callgsubr
          vlineto
          hintmask 1110100101000000
          -93 callgsubr
          hintmask 1110101000100000
          -91 callsubr
          hintmask 1110100101000000
          241.99000549316406 hlineto
          endchar
        </CharString>
        <CharString name="germandbls">
          107 -95 callsubr
          197 callgsubr
          1115.979995727539 233 hstemhm
          233 callgsubr
          374 179 324.99000549316406 -132.99000549316406 2 callsubr
          -299.97999572753906 385 hintmask 11110000
          1053.979995727539 901 rmoveto
          hintmask 11101000
          121 233 6 243 vvcurveto
          174 -164.99000549316406 134 -293.00999450683594 -307 -261 -122 -307 -68.02000427246094 vhcurveto
          -152 -30 rlineto
          -223 135 -896.9799957275391 374.00999450683594 953 vlineto
          294.99000549316406 88 98 141 92 50 -52 -76 vhcurveto
          hintmask 11110000
          199 callgsubr
          -192 -18 -187 vvcurveto
          hintmask 11100100
          -234 258 -59 -185 vvcurveto
          -106 -86 95 callgsubr
          -68.02000427246094 -61.99000549316406 -63 25 12 -19 vhcurveto
          -247 vlineto
          -17 29 103 -18.979995727539062 107 hhcurveto
          222 222 77.97999572753906 308 hvcurveto
          hintmask 11110000
          213 callgsubr
          -318.02000427246094 217 callgsubr
          123 vvcurveto
          endchar
        </CharString>
        <CharString name="grave">
          -606 1221.979995727539 603.0099945068359 hstem
          64.97999572753906 586.9900054931641 vstem
          482.97999572753906 173 callsubr
          -104 94 -154.99000549316406 212 158 callgsubr
          -43 callgsubr
          -4 callgsubr
          rlinecurve
          endchar
        </CharString>
        <CharString name="grave.cap">
          -629 1533.990005493164 454 hstem
          46 callgsubr
          521.9900054931641 vstem
          133 callgsubr
          22 callgsubr
          79 126 callsubr
          endchar
        </CharString>
        <CharString name="greater">
          69 76 callsubr
          1142.979995727539 hstem
          240 callgsubr
          944 vstem
          240 callgsubr
          1355.979995727539 rmoveto
          -322.99000549316406 vlineto
          513 -259.00999450683594 -513 -227 rlineto
          -333.99000549316406 vlineto
          944 485.99000549316406 rlineto
          154 vlineto
          -944 502.99000549316406 rlineto
          endchar
        </CharString>
        <CharString name="greaterequal">
          70 -2 235.99000549316406 hstem
          231.99000549316406 968.9900054931641 vstem
          232 1310.990005493164 rmoveto
          -303 vlineto
          553.9900054931641 -204 -553.9900054931641 -198.99000549316406 rlineto
          -293 vlineto
          968.9900054931641 415.99000549316406 rlineto
          163 vlineto
          -968.9900054931641 420 rlineto
          -1312.990005493164 vmoveto
          125 callsubr
        </CharString>
        <CharString name="gtilde">
          -93 callsubr
          144.99998474121094 -56 callsubr
          -131.99000549316406 263 -44 callsubr
          348.99000549316406 -11 callgsubr
          hintmask 1110101010100000
          482.97999572753906 1433.990005493164 rmoveto
          hintmask 1110110010100000
          25 callsubr
          hintmask 1110101010100000
          142 callsubr
          178 callsubr
          131 -198 100 callsubr
          -31 hvcurveto
          133 -133.02000427246094 rlineto
          45.02000427246094 34 62.02000427246094 55.99000549316406 95 callsubr
          hhcurveto
          hintmask 1111001010100000
          855.0200042724609 -293.99000549316406 -60 callgsubr
          hintmask 1110101010100000
          -90 callsubr
          hintmask 1110101100100000
          -106 callsubr
          hintmask 1111001011000000
          -74 callsubr
          hintmask 1111001010100000
          106 callgsubr
          vlineto
          hintmask 1110101011000000
          -93 callgsubr
          hintmask 1110101100100000
          -91 callsubr
          hintmask 1110101011000000
          241.99000549316406 hlineto
          endchar
        </CharString>
        <CharString name="guillemotleft">
          722 55.99000549316406 1118 hstem
          220.99000549316406 1566.979995727539 vstem
          884.9799957275391 1174 rmoveto
          41 callgsubr
          -86.02000427246094 253 rlineto
          903 -253 rmoveto
          -86 253 -664 -417.02000427246094 rlineto
          -284 vlineto
          664 -417 86 112 callgsubr
          -396 306.00999450683594 396 306 rlineto
          endchar
        </CharString>
        <CharString name="guillemotright">
          722 55.99000549316406 1118 hstem
          233.97999572753906 1566 vstem
          233.97999572753906 920.9900054931641 rmoveto
          151 callsubr
          133 callsubr
          -252.99000549316406 199 callsubr
          417 rlineto
          284 vlineto
          -663.9799957275391 417.02000427246094 -86.02000427246094 -253 rlineto
          902 253 rmoveto
          -86 -253 151 callsubr
          86 125 callgsubr
        </CharString>
        <CharString name="guilsinglleft">
          -94 55.99000549316406 1118 hstem
          220.99000549316406 749.9900054931641 vstem
          971 920.9900054931641 rmoveto
          -86.02000427246094 253 41 callgsubr
          rlineto
          endchar
        </CharString>
        <CharString name="guilsinglright">
          -94 55.99000549316406 1118 hstem
          232.97999572753906 750.0200042724609 vstem
          319 1174 rmoveto
          -86.02000427246094 -253 151 callsubr
          133 callsubr
          125 callgsubr
        </CharString>
        <CharString name="h">
          73 callsubr
          -41 callsubr
          428.00999450683594 -371 -1661.990005493164 371 792.9900054931641 vlineto
          -57 callsubr
        </CharString>
        <CharString name="hbar">
          73 callsubr
          139.02000427246094 104 callsubr
          -41 callsubr
          63.02000427246094 213 202 -213 163 -371 -163 -129 -202 129 -1297 371 792.9900054931641 vlineto
          -57 callsubr
        </CharString>
        <CharString name="hcircumflex">
          73 callsubr
          -41 callsubr
          343 vlineto
          54 -35 223 193 106 callsubr
          -193 178.02000427246094 71 callgsubr
          -278 -302 rlineto
          -253 -1661.990005493164 371 792.9900054931641 hlineto
          -57 callsubr
        </CharString>
        <CharString name="hungarumlaut">
          -265 1280 556.9900054931641 hstem
          26.990005493164062 1040.990005493164 vstem
          26.990005493164062 1384 rmoveto
          144 -104 97 46 callgsubr
          207 224 -45 callgsubr
          -15 callgsubr
          rlinecurve
          -215 147 -18 -79 callsubr
          -205.99000549316406 -325 -76 177 callsubr
          rlinecurve
          520.9900054931641 hmoveto
          140 -104 99 -20 callsubr
          214 227 67.00999450683594 128 rlinecurve
          -216 147 213 callsubr
          -29 -225.02000427246094 -340 -59 -36 callsubr
          rlinecurve
          endchar
        </CharString>
        <CharString name="hungarumlaut.cap">
          -338 1531.979995727539 432 hstem
          234 callsubr
          998.0099945068359 vstem
          234 callsubr
          1658 rmoveto
          179.02000427246094 -126.00999450683594 118 callgsubr
          -79 164 callgsubr
          -126.00999450683594 67.00999450683594 29 175 callgsubr
          164 78.00999450683594 118.00999450683594 rlinecurve
          -256 -67 callsubr
          -38 -36 callsubr
          -145.99000549316406 -186 -41 -40 rlinecurve
          endchar
        </CharString>
        <CharString name="hyphen">
          43 callgsubr
        </CharString>
        <CharString name="i">
          -86 callgsubr
        </CharString>
        <CharString name="i.cy">
          -86 callgsubr
        </CharString>
        <CharString name="i.dot">
          -86 callgsubr
        </CharString>
        <CharString name="iacute">
          0 1823.979995727539 hstem
          -8 callgsubr
          -72 callsubr
          vstem
          192.97999572753906 1395 rmoveto
          29 callsubr
          11 callgsubr
          -34 -255 -76 callgsubr
          endchar
        </CharString>
        <CharString name="ibreve">
          1284.990005493164 242.99000549316406 hstemhm
          -41 227 -27.009994506835938 53 callsubr
          hintmask 11000000
          -41 120 callsubr
          254 hhcurveto
          241 90 callgsubr
          -2 hvcurveto
          60 callsubr
          hlineto
          -48 87 callgsubr
          94 callgsubr
          -111 -137.99000549316406 hhcurveto
          -143 190 callgsubr
          hintmask 10100000
          199.99000549316406 -547 -76 callgsubr
          endchar
        </CharString>
        <CharString name="icircumflex">
          0 1731.990005493164 hstem
          -8 callgsubr
          -72 callsubr
          vstem
          -71 1361.979995727539 rmoveto
          233 callgsubr
          -114 246 callgsubr
          150 callsubr
          -304.97999572753906 117 callsubr
          rlineto
          195 callgsubr
          -221.99000549316406 -76 callgsubr
          endchar
        </CharString>
        <CharString name="idieresis">
          1280 393.99000549316406 hstemhm
          112 callsubr
          384 -129 -72 callsubr
          -131.99000549316406 385 hintmask 00000000
          hintmask 11010000
          112 callsubr
          1469.990005493164 rmoveto
          -111 156 callgsubr
          219 callgsubr
          84 93.97999572753906 111 112 -66 77 -116 -32 callsubr
          -88 -93 -111 vhcurveto
          495 hmoveto
          -111 72 219 callgsubr
          217 callgsubr
          93.97999572753906 111 112 -66 77 -117 3 callgsubr
          -89 -93 -111 vhcurveto
          hintmask 10100000
          -240 -330 -76 callgsubr
          endchar
        </CharString>
        <CharString name="igrave">
          0 1823.979995727539 hstem
          -8 callgsubr
          -72 callsubr
          vstem
          307 126 callgsubr
          -155 99 callsubr
          -148 -81 -76 callgsubr
          endchar
        </CharString>
        <CharString name="ij">
          61 -507 -4 callsubr
          1547 -32 callgsubr
          -396.97999572753906 -22 callgsubr
          143 callgsubr
          427 -390.989990234375 -72 callsubr
          279.99998474121094 427 -388.989990234375 53 callsubr
          hintmask 10101100
          810.9900054931641 1471 rmoveto
          -29 callsubr
          -66 callsubr
          -21 callgsubr
          -103 155 callgsubr
          hintmask 11010010
          -688 -1 -90 callgsubr
          hintmask 10101010
          36 -330 -40 callsubr
        </CharString>
        <CharString name="ij_acutecomb">
          61 -507 -4 callsubr
          hstem
          -8 callgsubr
          -72 callsubr
          318.00999450683594 -72 callsubr
          vstem
          873.9799957275391 1396 rmoveto
          29 callsubr
          42.99000549316406 255 204 50 callsubr
          -681 -1 rmoveto
          29 callsubr
          11 callgsubr
          -34 -255 -40 callsubr
        </CharString>
        <CharString name="imacron">
          1402.979995727539 -4 callsubr
          hstemhm
          34.970001220703125 619 -494.97999572753906 53 callsubr
          hintmask 11000000
          34.970001220703125 136 callgsubr
          hintmask 10100000
          124.00999450683594 -500.99000549316406 -76 callgsubr
          endchar
        </CharString>
        <CharString name="infinity">
          795 144.99000549316406 254.99000549316406 -249.99000549316406 48 callgsubr
          427.00999450683594 258.99000549316406 -252.99000549316406 48 callgsubr
          hstemhm
          216 callgsubr
          309 1333.989990234375 311 hintmask 10011100
          1518 1078.990005493164 rmoveto
          -184 -1 -147 -103 215 callsubr
          -124.00999450683594 rrcurveto
          hintmask 01101100
          -100 131.02000427246094 -144 100.99000549316406 -250 1 rrcurveto
          -316 1 -193.99000549316406 -206 -255 vvcurveto
          -251 164.99000549316406 -227.99000549316406 359.02000427246094 5 vhcurveto
          181.99000549316406 40 callgsubr
          140 100 196 callsubr
          120.00999450683594 rrcurveto
          hintmask 10011100
          -128 98 140 -99 254 hhcurveto
          319 193 209.97999572753906 258.00999450683594 251 -154 218 -355.99000549316406 -3 hvcurveto
          -1 -679 rmoveto
          -133 -110 61 callgsubr
          134 -72 hvcurveto
          176 callsubr
          93 93 46 89 hhcurveto
          161 75 callsubr
          -92.02000427246094 -32 callsubr
          -138 -82 -87 -117.99000549316406 hvcurveto
          hintmask 01101100
          -898 -2 rmoveto
          130 callsubr
          -76 103 -64 callgsubr
          130 81 81 115 131.99000549316406 116 -134 -133 156 callgsubr
          hvcurveto
          3 callsubr
          -95.00999450683594 158 callsubr
          -46 -89 hhcurveto
          endchar
        </CharString>
        <CharString name="integral">
          -219 -518 243.99000549316406 1722 235.99000549316406 -50 callsubr
          321 104 213 callgsubr
          vstem
          241 callgsubr
          -386.99000549316406 rmoveto
          -75.02000427246094 -20 callsubr
          162.02000427246094 -56 122 hhcurveto
          356.99000549316406 144.02000427246094 261 255 -4.0099945068359375 hvcurveto
          -7 427.99000549316406 -413.99000549316406 383 -6 233 callsubr
          rrcurveto
          159.99000549316406 -3 74 92.02000427246094 140 hhcurveto
          133 callsubr
          75.97999572753906 -54 -30 14.009994506835938 hvcurveto
          131 183 rlineto
          -35 callsubr
          -50 -141 53 -134.99000549316406 hhcurveto
          -361 -157 -224.99000549316406 -278 5 hvcurveto
          6 -423.00999450683594 413 -393 6 -390 rrcurveto
          -142.99000549316406 -48 callgsubr
          -42 -106 -155 hhcurveto
          48 callsubr
          -101.00999450683594 61 -33 callsubr
          -25 hvcurveto
          -103 -211.99000549316406 rlineto
          endchar
        </CharString>
</ttFont>
